<svg xmlns="http://www.w3.org/2000/svg" xmlns:xlink="http://www.w3.org/1999/xlink" width="1920" height="1080" viewBox="0 0 1920 1080"><a id="country-map" class="cta-country-map__link track-cta--country-map" href="https://eu.theecoexperts.com/solar-profit-v1">

  <g id="a" clip-path="url(#b)">
    <rect width="1920" height="1080" fill="#fff"></rect>
    <g transform="translate(251.597 -14.434)">
      <path d="M604.3,363.921l3.453,2.567.8.738h0v.177l1.328,2.567,2.066,3.128,2.951,3.453,2.272,1.357,3.807,2.449,4.663-.3,1.3.443,3.571,1.8,9.473,1.3.738.62v.738l-1.121,1.534-.443.856L639,388.3v3.069l-.738,1.948-.148.8.3,4.486.384,1.3v.856l-.354,1.682-.443,1.3v6.079l.354,1.269.413.767.885,1.121,15.021,23.254,1.21,1.21.767.472.767.354.561.177.207-.5.148-.62.443-.472h.5l5.164,1.18.915.354,8.558,6.669-2.951,2.066-.915,1.092-.561,2.213-1.357,2.6-2.951,4.279-5.9,5.9-2.567,3.541-1.771,5.105-.738,4.368-1.21,3.423-.561,3.482-2.951,7.673-2.125,3.512v1.535l.3,1.121.354.944.207,1.092-.177,1.121-.5.649-.767.3-2.272.177-.59.3-1.269,1.239-3.512,2.42L637.7,506.9l-1.033,5.164-1.151,1.5-1.594,1.18-1.653,1.771-.384.944-.531,2.361-.531,1.033-.915.59-1.121.3-.915.384-1.033,2.39-1.594,1.21-2.007.826-1.948.3-3.777-1.21-2.951-2.951-2.449-3.423-2.685-2.951-3.571-2.213-2.1-.826-2.272-.3-1.859.384-3.276,1.712-2.036.443-.915-.236-2.744-1.18-1.21-.266-8.558,1.387-1.623.915-2.6,4.043-2.066,5.607-2.567,2.656-.5.354-1.121,1.18-2.567,1.092-2.951.5-1.8-.679-2.066.885L559,530.742l-1.977-1.594-1.859-.8-.885.236-.944,1.18-.915.266-1.033-.59-2.774-3.659-2.184-1.239-1.948-.177-3.777.561-25.851-1.712-10.24,1.24-1.475,1-1.387,1.357-2.066,1.534-4.367,1.623h-3.689l-15.021-4.338-1.092-1.062-1.062-.531-6.433,1.83-4.426.325-7.791-2.3-4.368-.443-10.092,2.774-9.886-1.18-2.479.236-11.656,3.836-2.774.384-17.942-1.446-1.712.531-1.328,1.121-2.8,4.9-.561,1.062-1.387,1.475-1.062,1.8-.443,2.036-.708,1.092-12.129,7.614-1.948,4.072-.738.738-.944.561-2.125.856-4.249.944h-4.19l-12.512-2.331h-2.243l-.974.3-1.121.915-7.112,3.777-6.846,1.771-4.663,2.951-1.239.443-3.689.443-1.623.561-1.269.767-1.328,1.741-2.774,4.9-1.682,1.564-1.712,4.544-.885,1.859-.5.561-.738.679-.826.561-1.653.649v.944l.413,1.121v.915l-4.486,6.846-.472,1.3-.472,5.9h-2.066l-.738-2.066-1.594-1.151-2.361-.856h-1.977l-.325,1.21L289.9,598.7l-.443,1.594v1.771l.679,1.594-.5.915.266,1.18.561,1.21.3,1-.325,1.387-.679.856-.679.649-.3.856-11.8,3.6-1.475.944-1.269.177-3.63-2.951-4.22-2.39-1.771-1.387-2.39.915-2.1-.708-1.977-1.24-4.279-1.239-1.505-1.387-2.184-3.158-6.551-6.4-1.948-1.269h-2.154l-4.515.856-4.131-1.564-2.6-3.423-1.977-4.161-2.272-3.718-4.9-3.689-.649-1.8-.266-2.036-.679-2.272-.885-2.125-2.243-3.954-2.39-5.489-2.715-3.718-2.272-4.367-2.154-1.8-.885-1.033,1.239-.561.826.177,3.217,2.951.856,1.121-.531,1.062.767,1.21,1.535,1.741,1.239-.3.767-.708L214.971,556l2.154-2.479h-.708l-2.036.679-1.771-.266-.826-1.889.649-3.807-.885-2.361-4.013-3.718-1.062-.561-6.846-.443-1.8-.472-1.505-1.594-1.239-4.958-1.062-2.42-1.417-2.3-.62-2.331.443-2.243,1.889-2.066,1.83-.915,3.777-1.357,1.328-1.151,1.062-2.951-.885-5.223.561-2.951,3.423-2.951,8.145.62,2.951-3.718-1.918,1.3-2.6,1.033h-2.567l-1.83-1.623-4.279,1.653-1.889,1.446-.767,2.626.561,7.555-.561,1.417h-3.6l-2.951-3.689-3.246-8.322-2.272-3.925-2.951-2.951L161,480.988l-2.685-1.446-2.331-.59-1.712-.767-4.161-3.453-2.036-.944-1.977-.974-1.8-2.951-.679-3.276.679-1.564,1.21-1.033,3.482-5.253,1.151-2.243-5.105,5.755-2.774,1.977h-3.187v.767l2.213,3.394,1.062,2.184.177,1.358-1.328.177-8.853-4.338L129.1,466.7l-7.968-.767,1.357.679,2.951.325,1.357.708-24.375.62-1.535.649-2.007,1.83-1.859.236-1.712-.708-1.594-.915-1.564-5.548-.5-2.951.679-1.918-1-4.131-.62-10-1.712-3.925.207-1.417-.3-2.774-.59-2.951-.708-2.361-.561-.767L85.333,429.2l-.8-.826-.915-1.417-.207-.738v-.856l-.531-1.712H82.5v-1.476l.325-.5,1.062-1.239v-.62l.207-.561v-.62l-.266-.767.944-.62,2.656-2.951.708-1,.531-1.918.885-6.079,1.357-3.807,1.771-2.6,9.237-7.761,2.774-4.928,1.121-4.338,2.213-5.9.5-2.243V372.39l-.325-1.18v-1.033l.679-.767,3.187-.649,1.092-.708h1.3l1.269.384,1.269.147,1.239-.62,1.328-.413.738-.472,1.033-1.387,1-2.656.885-.944,1.741.148,5.7,2.361,2.538-.3.826-3.1.944-1.594.885-3.836,1.889-3.866,1.328-4.249.8-1.889,1.033-3.63-.266-.177,1.682-1.387,13.663,4.633.531.974v.885l-.325.856-.531.767-.413.8-.708,1.712v.885l.3.738.856.561,1.328.325,1.21.708L161,355.3h4.781l2.42-.413,3.276.3,1.446.384,1.3.5,1.417,1.18,1.918,2.626.3.885.207.944v.944l.266.826.59.62,4.81.3,2.479.826,1.062-.088.354-.384.236-.708.531-.59,1.505-1.3.531-.738.384-.738.708-.5.826-.236h1.033l1.121.413,4.072,2.951.738,1.269.384,1,.177.856.266.738h0l2.567.708,13.132,5.4,1.712,1.653,1.328-1.357,3.128-2.361,2.479-1.328,7.643-1.505,1.948-.148,4.308-.885,1.328-.5,1.062-.679,1.121-1.328.384-.944.236-.738v-.59l.325-.738,1.712-2.213.3-.885v-.915l-.325-.856-.5-.8-.413-.8v-.885l.3-.885.443-.944.62-.885.885-.826,2.626-1.594.738-.59.561-.59.856-1.594.679-.856.915-.708,2.951-1.121,6.728-.915,1.3.236,1.387,1.062,1.564,1.8.443.8.207.738-.443.679-1.594.944-.885.354-.767.5-.59.59v1.682l.531,2.685.62.679,1.121.177,1.771-.325,2.213-1.623,2.213-2.1.679-.8,1.948-1.3,4.249.236,4.309-3.482.472-.679v-1.653l.325-1.8.325-.915.708-.885.236-1.771V336l-.207-.944V333.2l-.177-.5-.944-1.8-.3-.679-.325-.62-.207-.62-.413-1.476-.236-.59-.325-.62-.443-.472-.531-.472-.443-.472-.266-.531v-.531l.207-1.3.207-.649.266-1.387v-1.3l-.3-.561-.856-1-.325-.62v-1.3l.649-2.656.738-.915,1.269-1.062,4.486-2.479,1.653-.561.767-.59,1.033-1.771.561-.767,1.475-1.417h0l2.951-1.977.826-1.151.354-.915v-.8l.3-.708.767-.679.62-.767.885-1.387.531-.708,1.771-1.594,1.3-.266h2.036l1.239.236h.561l.472-.177.325-.59v-.649l.266-.59.325-.5.413-.5.5-.708,3.246-2.8,4.6-3.158,2.951-.885.443-.62.207-.738.325-.826.384-1.328-.177-1-.384-.915.236-.708,1.121-.531,8-.207,1.623-.767,2.744-.384,5.9,4.368,3.335,1.387h2.184l1.151-.207h2.951l.944.59.384.856.236,2.007v.974l.148,2.007.5,1.18,1.18,1.417,2.1,1.387,1.446.561,1.3.236h1.977l1.239.384,4.131,1.859,1.328.915.8.944.3.767,1.889,1.151,1.712.679,3.571,2.744.885,1.18.531,1.062.8,1.18.826.561.915.325h.915l1.387.413,1.21,1,1.535.767,2.626,2.213,2.951,2.951,1.948,2.951.944,1.092,1.033.62,4.456,2.1,2.6.885,1.357.207,6.492,2.685,1.18.148,1.446-.266v-4.722l.325-.885.679-.826.885-.177h2.125l1.948.266,3.836,1.387,28.536,1.121,3.394-.531,2.036-.856,1.033-1.948.649-.944,1.564-1,1.357-.384,1.564-.177h1.151l.944.472,1.682.59.826-.266.708-.325h.826l2.538,1.092,2.036.266,5.223,1.3h1.3l1.121-.3.708-.472.413-.738.413-2.951.413-.974,1.033-.708h2.272l.561.679.354.8.148.915.266.856.413.826.738.472,3.305.885,1.682.236h1.21l1.239-.207,2.626-1.092,2.331-1.475,1.446-1.535.472-.8v-.885l.207-.915.384-.944.8-.915,1.564-.561,2.3-.325h1.535l1.18.413,1.8.885,1.83.649,1.948.384,6.994.354,3.364,1.033h1.416l.974-.472,1.505-1.416,2.951-1.83h.915l.767.443.679.8,2.331,3.394,1.387,1.535.856.561.384-.384.177-.708.266-1.712.59-.679,2.036-1.475,1.594-.738,1.269-.177h1.476l1.033.207,1.033.354.767.649,1.151.679H550l.354-.177.236-.266.266-.207.531-.266h.177l.207-.266.177-.325.885-.826.59-.443,2.951-1.564.531-.236.413-.3h0l1.623-.826,2.066-1.741.266-.472,1.151-1.121,3.777,2.39,4.368,1.8,1.918-.767,1.328-.384,1.653-.177h2.774l1.682.62.826.384.207.207v.649l-.325,1.534.236,1.771.207.885v1.83l-.266.915v.856l.266.885.413.62,1.033,1.062,6.876,2.007.177.738v2.8l.207.944.354.856.3,1.918V327l.177,1.151.649,1.269,3.128,1.977.767,1.269.177.915v.856l-.177.826v.974l-.177.767-.236.708-.413.62-.443.384-.325.413v.649l.443,1.505v1.151l-.177,1.033-6.2,8-.944,1.712-.62.856-1.446,1.534-1.121,1.594,8.2,3.984,10.535,3.158h1.033l1.239-.354" transform="translate(117.354 447.739)" fill="#FFD106" stroke="#fff" stroke-miterlimit="10" stroke-width="0.75"></path>
      <path d="M490.538,182.276l8.2-2.6,2.715.738.62.944.974.944,1.269.944,2.538,1.033,4.1,3.217,3.364,1.889,4.987,4.25.62.856.472.826.325.885.59.885,1.446,1.712,5.4,4.692.62.826,1.062,1.062.62.826,3.453,3.1,1.18,2.538-.177,1.121-.207,4.308.531,1.977.767,1.741.767,1.033,1.387,1.623,2.627,1.8.915,1.033.325,1,.177,1.18v3.158l-.3,1.269-.944,1.977-.413,1.121v2.479l.413,1.151.59,1.18.767,1.741.236,1.328v2.8l-.3,1.062-.826,1.741-.561,2.125v1.535l.413,2.508-.443.767-.62.826-.8.649-1.712.974h-1.771l-.826-.443-.767-.649-1.682-.708h-.915l-2.508-.62-.679.531-.5.826-1.594,4.81-.147,1.771v4.692l-.59,1.062-.826.679-1.889.974-.885.738-.885,1.062-3.246,5.017-.708.649-.649.177-1.24,1.682,2.951,1.3,1.712,1.83,4.191,5.636.531,1.83v1.476l-.443,1.033.148,1.653.561.266.472-.443.885-.5,1.476.207,2.538,1.357L541,307.134l1.357.974.826.354,1.357-.767H545.6l1.416.354,1.417.561,1.151.148,2.538-.472.5.561.177.826v1.889l-.5,1.623-.561,1.239-.384,2.508.472.649.679.679,2.42,1.446.384.62.3.885.354,1.623,2.951,8.292.885.767.974.3h.591l6.374,1.062,2.715,1.062h1.623l.8-.325h.177l.974-.207,1.771-.148,1.889-.354.649-.354,1.8-.325,1.741,5.105-1.269,1.121-3.836,1.712-.767.826-.266.767.148.649.59,1.239.236.767v1l-.266,2.036v2.007l-.266,2.125-1.505,6.7L573.9,360.7l-.708,1.21-1.151,1.5-2.3,4.161-.325,1.21v2.007l.443,2.007v1.239l-.443.915-.62.8-.767.59-.856.443-.974.236h-1.859l-.885-.3-.8-.5-1.712-.8h-1.8l-.915.413-1.8,1.5-2.272,2.272-.59.8-3.6,7.171-1.151,1.505-1.062,1-.915.472-.384.5-.5,1.358v1.328l.207.472v.531l-.236.767v3.01l.207.5h0v.3l-.3.325-.413.354-.207.531v1.387l-.649,2.213-.531.944v1.387l.266.561.384.531.443.3.561,1.092,1.417.3.266.561.266.767.5.443.738.236.177.443.266.531.944.325.325.531.148.59V415.2l.3.885h.472l.561-.148h1.476l.531-.354h.915l2.154.708,4.545,2.951,1.062.5h2.6l13.368,4.279.62,1.062v1l-.354.974-.207.944-.236,2.036v2.892l-.236,1.918-.266.944-.325.8-.177.767-.472,1.21-.236.885-.856,1.859-.62.767-.708.708-1.21,1.594-.443.885-.59,1.948-.384.974-1.033,1.83-.354.915-.177.885-.3.885-.266,1.092v1.357l.561,2.066.738,1.18,9.768,11.539,1.682,1.357,1.357.708h2.744l2.774-.62h2.951l1.83-.413,1.535-1.033.59-.236h.738l.974.207,1.033.413,1.21.8,3.276,5.725.561,1.21v.974l-.5,1.977v1.033l1.3,3.954v.59l-.266.856-.384.62-.148,2.154-1.535,1.918-.944.354-.384.885v.974l.5,2.479.649,1.564.944,1.387.561.679,1.121,1.623.649.8.649.974v.472l-.472.472-3.276,2.1-1.771.679-2.036.3h-2.922l-1.594.472-5.607-4.22L586,501.547l-.413-.8-.266-.856v-1.83l-.561-.679-.856-.443-3.63-1.18-.974-.177-5.9,1.535-.974.5-.974.8-2.567,2.626-5.607,3.158h-1.121l-.767-.5-.5-.767-.561-.62-.8-.177-1.446.738-1.711,1.534-2.951,3.748-1.682,3.6-.3,1.977v.944l-.148,1.948-.443.885-.561.856-1.18.826-.915.856-1.24,2.184-.236.679-.207.738v1.475l.177.5.354.767.531,1.711.384,2.1.266,4.043v2.1l.472,2.951V541.3l-.207.944-.413.885-.944,1.062-7.319,5.9-5.9,1.889h-.974l-.974-.207-.856-.3-1.328-.649-.561-.384-.472-.531-.384-.59-.207-.649v-1.358l.3-.679V545.37l-.354-.531-.443-.443-.5-.354h-.679l-1.652.3-.59-.3-1.151-.738-.679-.148h-.738l-.944.266-.738.413-.679.708-1.239.3H517.1l-.177.236v.679l-.3.738-5.43,3.276-3.807,2.951L504.91,554.1l-1.594.561-3.217.561-2.656.944h-.826l-.59-.325-1.741-1.653-.738-.5h-.826l-1.121.207-1.653,1-2.6,3.128-4.249,3.925-1.18.62-1.977.413-1.18.413-1.239.738-2.951,2.8-1.033,1.682-2.951,5.9-2.951,4.19-3.659,4.131-.531.915L462,588.307l-1.24.354H459.73l-10.506-3.246-8.2-3.984,1.121-1.594,1.446-1.535.62-.856.944-1.712,6.2-8,.177-1.033v-1.151l-.443-1.505V563.4l.325-.413.443-.384.413-.62.236-.708.177-.767v-.974l.177-.826v-.856l-.177-.915-.767-1.269-3.128-1.977-.649-1.269-.177-1.151v-3.158l-.3-1.918-.354-.856-.207-.944v-2.8l-.177-.738-6.876-2.007-1.033-1.062-.413-.62-.266-.885v-.856l.266-.915v-1.83l-.207-.885-.236-1.771.325-1.534v-.649l-.207-.207-.826-.384-1.682-.62h-2.774l-1.653.177-1.328.384-1.918.767-4.367-1.8-3.777-2.39L418.8,524.89l-.266.472-2.066,1.741-1.623.826h0l-.413.3-.531.236-2.951,1.564-.59.443-.885.826-.177.325-.207.266h-.177l-.531.266-.266.207-.236.266-.354.177h-.472l-1.151-.679-.767-.649-1.033-.354-1.033-.207h-1.476l-1.269.177-1.593.738L396.7,533.3l-.59.679-.266,1.712-.177.708-.384.384-.856-.561-1.387-1.534-2.331-3.394-.5-.8-.767-.443h-.915l-2.951,1.83-1.505,1.417-.974.472h-1.416l-3.364-1.033-6.994-.354L369.37,532l-1.83-.649-1.8-.885-1.18-.413h-1.535l-2.331.443-1.623.826-.8.915-.384.944-.207.915v.885l-.472.8-1.446,1.534-2.331,1.476-2.626,1.092-1.239.207h-1.21l-1.682-.236-3.305-.885-.738-.472-.413-.826-.266-.856-.148-.915-.354-.8-.561-.679H338.62l-1.033.708-.413.974-.413,2.951-.413.738-.708.472-1.121.3h-1.3l-5.223-1.3L325.96,539l-2.538-1.092H322.6l-.708.325-.826.266-1.682-.59-.944-.472h-1.151l-1.564.177-1.357.384-1.564,1-.649.944-1.033,1.948-2.036.856-3.394.531-28.536-1.121-3.836-1.387-1.948-.266h-2.125l-.885.177-.679.826-.325.885v4.722l-1.446.266-1.18-.148-6.492-2.685-1.358-.207-2.6-.885-4.456-2.1-1.033-.62-.944-1.092-1.948-2.951-2.951-2.951-2.626-2.213-1.535-.767-1.21-1-1.387-.413h-.915l-.915-.325-.826-.561-.8-1.18-.531-1.062-.885-1.18-3.571-2.744-1.712-.679-1.889-1.151-.3-.767-.8-.944-1.328-.915-4.131-1.859-1.239-.384h-1.977l-1.3-.236-1.446-.561-2.1-1.387-1.18-1.416-.5-1.18-.148-2.007v-.974l-.236-2.007-.384-.856-.944-.59H203.2l-1.151.207h-2.184l-3.335-1.387-5.9-4.368,1.505-.738,1.18-.148h1.18l.738-.443.944-1.328.974-2.508,2.42-9.03.472-1.21,1.564-2.774.767-.885.679-.649.826-.472.885-.266.974-.147,2.774.384h.8l.5-.679.443-2.951.5-1.859-.384-1.417-.649-.826-2.685-.384-.649-.413-3.423-.974-.679-.561-.443-.767-.325-.944V464.01h0l-.3-.177-.531-.413-.472-.649-.207-.915v-.974l-.354-.944-.266-.944v-.856l.8-.679.856-.266.915.177.885.325,2.479,1.476,1.8.649h.974l.885-.384,2.42-1.416.384-.885-.266-1.092-.679-.738-1.712-1-.649-.679-.354-1.328v-1.83l1.18-5.4.443-1.446.413-.826.738-.62,1.417-1.535.62-.856.62-.738.679-.561h.8l1.771.5h1.859l1.8-.443,1.741.3.856.443.767.531,3.541,1.712.472.177h1.3l-1.21-2.213-2.951-3.512-1.151-.915-.5-.885-.148-.5-1.771-3.217-1.889-4.722-.266-1.151v-1.328l.738-1.033.885-.443,1.033-.207,1-.679.944-1.21,1.5-4.427,1.476-2.951.354-2.272-1.505-4.161-1.092,1.475-4.958,2.626-1.417,1.741-1.092.531-3.6,1.062-2.272,1.092-.62.443-.767.236h-.531l-2.479,1.475-6.463-3.246-1.18-1-1.062-.856-.472-.443-1.328-1.446-1.033-1.535-2.951-3.453-1.446-2.449-.738-.5-1.8-.472-1.505-.944-.767-.915-1.446-1.21-2.154-2.331L178.822,391l-.738-.649-1.623-1.062-.738-.679-.62-.708-.325-.767.207-.8,1.092-1.535.5-.856.59-.8.443-.885,1.033-1.594.384-.826.236-.915.325-.826v-2.744l.443-1.8.384-.885.177-1v-1.033l-.708-1.092-1.357-1.623-.3-.767.62-1.977v-1.239l-.472-1.712-.443-1.033-.767-.472h-.649l-2.007.3-.649.266-2.036,1.741-.885,1-1.121,1.859-.5.443-.649.207h-1.387l-3.423-.679-.531-.649-.354-1.121.266-2.951.236-1.269v-1.505l.266-1.564.5-1.092L165.336,354l.3-.856v-.885l-.443-.8-.59-.8-.649-.738-.708-.62-.856-.413-.856-.207-2.774.236-1.918.413-.944.384-.443-1.623v-3.806l1.682-9.738.531-7.023-.236-1.239v-1.328l.531-3.276.443-1.092.3-.5,2.951-1.387,9.8,1.239L174.4,321.3l1.151.885h2.39l1.623-.384.944-.413.177-.413.384-.5,4.161-3.128.413-.561.826-1.033.8-.649,1.18-.679,2.567-.8h1.121l.679.561.649,3.718.5.708,1.446.413,2.243-.5,1.475-.649,2.184-1.535.767-.767.443-.826.384-.974.177-1,.885-1.594L205,310.2l1.741-1.092,1.062-.944,2.243-1.269,1.623-1.446,1.21-1.623.207-1.21v-1.033l.561-1.83.561-.62h2.1l4.722-.649,2.243-.708h1.062l.531.8v.944l.177,1,.266.915.443,2.951.3.944.5.767.708.59,1.948.885,1.328.384h1.387l2.331-.62,2.951-1.269,2.272,1.476,1.653.354h1.239l.944-.531.472-.8.974-.885,1.269-.767,2.951-1.328,1.387-.974.944-1.092.5-1.033,3.1-3.158.649-.885.472-.974,1.239-1.889.531-.207.59.177.62.531.384.767v.885l-.266,1.948v.944l.266.885.767,1.771.679.767.885.767,1.564.62,1.387,1.594h.413l.5-.266,1.416-1.21.679-.738.856-1.269.708-1.416.561-.679,1.092-.8,2.567-.443,2.479-1.564h.944l.767.561.62.8,2.951,2.951,1.593.5,1.889.325,1.357-.472.974-.59.885-.738h.885l2.154.885.915.62.767.738.649.915.472.885.915.767,1.239.59,5.371,1.712,3.217,1.564,4.781,1.239.5.354.561.531.531.767.974.767h.915l1.741-.472.8.266.679.561,1.564,2.243.708.5.59.266,1.18.325,2.538-.413,1.387.207,1.594.472,1.859.148,4.928,2.449,1.033.885.384.649v2.626l-.885,2.685-.266.561-.826,1.269-.207.472-.5.413-1.18.767h-.738l-1.3.767-4.692,4.987-1.593,1.357-1.859.561-.59.443-1.623,1.889-.5.413h-1.21l-6.286,2.007-1.18.649-.915.8.443.944,1.21,1.121,3.187,2.007,1.594.266,1.21-.325.738-.885,1.594-1.269.856-.384,1.446-1.358.915-1.121.679-.59,1.062.148,1.092-.354,1.83-.207,1.151-.5,1.771-1.269,2.331-.679.826-.443.266-.679v-1.83l.472-.561,1.564-.59,1.889-.5h.148l.708-.679.62-.443.826-.413,4.013-1,.885-.413.443-.708.708-1.416,1.328-1.18,9.65.384,3.453-1.535,1.889,1.475,1.121.207,1.239-.413,4.043-1,6.079-3.246,4.072-1.358,1.8,1.033.384.561.207,1.3,5.017-.236,1.977-.62,1.535-1.269,1-1.062.561-1v-.944l-.354-.856-.62-.738-.413-.856-.354-.885-.236-1.033-.384-.915-.148-1.18.3-.5h.384l.767.207-1-5.223v-3.954l-.354-1.535-.885-2.331-.856-1.682-1.151-.8h-.944l-2.626,1.918-.708.826-.62.826-.708.679h-.767l-.738-.944-.266-1.859v-1.387l.266-1.269.354-1.151v-1.18l.266-1.446.62-.944,1.416-1.416.472-.738.207-.708v-.649l.413-1.21.3-.59.148-.62v-2.331l.236-.531.148-1.062-.325-1.475-1.535-2.567-1.21-1-1.121-.62-.915-.207-.708-.531-.384-.944.148-3.718-.207-2.626v-1l-.3-.767-2.1-2.066-.8-.62-.708-.679-.826-.413-.915-.148-.62.236-.679.384-.62.443-.59.177h-.708l-.354-.325-.177-.443.177-.561.236-.354.207-.443v-.59l-.207-1.062-.3-.885-1.387-1.328-.885-.531-.59-.885-.443-1.121.177-3.6.59-2.951-.62-.266-.531.325-.738.354-.767-.177-1.062-.708-1.151-1.21-1.416-2.538-.826-1.092h-.738l-.325.679-.5.531-1.446-.148-1.535.384-.8-.354-.649-.649-.649-.767-.384-.8.354-1.151,1.239-1.741.354-.826v-1.033l-.354-.915v-1.8l-.236-1.328-.649-1.446-.738-.826-2.951-.915-.708-.472-.266-.443v-.5l.384-.443.325-.531.62-1.239.531-1.328.177-.8.59-3.866.266-.62.354-.5.472-.384.443-.207.561-.531.413-.708V216.39l-.5-1.092v-1.062l.354-.915.325-1.269.472-.974.384-1,.856-2.951.413-.974.354-1,.8-1.712.3-1.239v-1.83l-1.475-4.1-1.18-4.545-.944-.413-.767-.207-2.331-1.18-.767-.561-.915-.944-1.062-1.8-3.807-3.777-.413-2.331,1.8.207.826-.3,7.791-5.9,2.3-.561.8-.384.266-1.092.266-2.066V169.5l-.443-.856-.531-.8-.325-.62.266-.384,2.744,1.121,5.017.266,4.9-.944,1.121-.708H370.2l2.951-3.512,2.1-1.092,11.568,2.715h3.512l6.7-.856,2.243-.561,1.623-1,.3-.826.531-.767.59-.708.885-.443,1.151-.354h1.239l1.771.915.531.915.3,1.033.177.974.59,1.859.8.8,1.18.649,3.836,1.033h2.479l1.121-.59.915-.649.944-.472h1.033l1.357.207.8.885.5.944.59.856,1.121.62,1.8.561,2.449.354,1.653.826.8.856.561.767.767.325.885-.236h1.741l.62.856-.266.738-.472.856-1.535,1.062-.148.5.8.679,1.741.974.531.944v.856l-.856,1.476.266.679.8.443h1.121l1.623-.649,1.033-.59.885-.325.915.62.5.856.413.944.236.856.325.679.266.354.531.384,1.21.62.679.472.384.767.59,1.918.413,1,.738.826,1.062.679,2.744,1.239h1.328l3.305-1.682,1.21-.413,1.21.354.8.649,1.771,1.033,1.357.207,2.508-.5,1.505-.5,1.3-.62,1.151-1,1.21-.708,1.8-.3,2.272.354h.944l.944-.236,3.276-3.158.826-.531.8.266.59.649.738.708,2.479,1.564.679.649.531.767.62.649.767.266.62-.325.207-.767-.3-.8-.177-2.508.915-3.394v-1.977" transform="translate(259.68 223.353)" fill="#FFD106" stroke="#fff" stroke-miterlimit="10" stroke-width="0.75"></path>
      <path d="M343.687,79.119v7.437l-.443,1.3-.62,1-4.368,2.125h-.944l-2.243-.826-2.6.325-6.227-.443-1.3.649-.856,1.062-8.587,5.9-1.062,1.387-.354,1.239.354.974v2.066l-.148.974v.974l.325.944.472.974.738,2.951.207,1.712-2.951.236-2.951-.413-1.83.177-1.918-.443-2.715-1.269-2.951-.767-2.951-.413-.826-.5-1.594-1.239-.885-.384h-1.121l-1.446.944-2.007,2.184-2.42,3.276-1.505,1.594-1.18.974-1.8,1.033-1.535,1.357-.915.443h-.944l-2.951-.236h-1l-.885.266-.649.5v2.42l-.384,1.328-1.239,1.328-1,.561-1.535.5-1.594.915-2.066,2.3-1.83,1.21-.856.354-.767.59-.148.207-.826,1.623-2.3,6.433v2.007l.413,1,.649.856.856.679.944.354h1.033l1.83-.62,2.744-1.3.738-.708.826-1.771.5-.738.826-.325.856-.236.885.3.738.649.679.915.561.885.207.856-.531,1.033-2.951,1.918-2.951.207-.177.561v.649l-.59.59-.3.708.413,1.594v.974l.354.826.738.561h.856l.826-.531.767-1.328.738-.974,1.21-.62h1.033l.856.5.384.915v2.508l.236,1.062.738,1.476.236.679v1.859l-.561.826-.974.561h-3.453l-1.8.384-3.453,3.217-1.18.62-1.977.62-1.623.266-3.541-1,.3-2.213V155.55l-.236-.354-.856.384-.8.62-2.951,6.315-3.866.944-1.062-1.771-.531-.679-.885-.679-1-.413-2.685-.207-1.151-.413-1.977-1.712-.708-.8-.236-.767.3-.8.738-.472,1.8-.561h.915l.856-.384.62-.679.3-.915-.177-1-.679-.738-.915-.472-2.449.708-.915.649-1.3,1.121-.472.236h-.738l-.738-.354-.531-.679-.236-.708v-1.357l-.177-.915v-1.062l-.207-.944v-.974l-.177-1-.5-1.918-.207-1.918v-1.918l-.236-.944-1.416-1-10.535-3.954-1.387-1-.62-.944v-.207l-.384-1.033-2.184-3.305-.885-.708-2.449-1.328-1.092-.325h-1.682l-1.859,1.151-.974.413h-1.475l-1.328.236-3.394,1.889h-1.3l-3.6-.3-3.807.8h-5.076l-1.623.5h-2.125l-.8-3.512-.413-.915L182,122.528l-.59-1.269-.59-.974-4.131-2.213-.944-.8-.708-1.033-.561-2.184-.266-1.505.413-7.378,1.21.148,2.951-.472.944-.354.974-.177,1.918.413h.915l.826-.649.649-1.505.266-1.18V99.333l.236-.944-.266-1.889.207-.915.59-.826,1.21-.679,1.062-.325h1.033l.915.207h.974l2.1-.207.944-.5.531-.384.413-.767.708-.8,1.535-.944.944-.177H199.5l1.859.443.679.5.561,1.564.59.472.8-.207.767-.62.62-.826.325-1.151L205.845,89l-.3-1.918-.915-2.508-.443-.561-.207-.826.3-.885,1.239-2.213.885-1.889V76.551l.207-3.364h.443l2.656,2.6,2.1-2.066,2.951-.531,2.774.767,1.948,1.83h.62l1.062-1.712.944-.5,4.692.561L239.28,72.8l2.774-2.184,6.374-2.007,2.39-.354H255.3l.59-.354v-.679l.148-.649.826-.3.708.236,2.449,1.741.5-.649.443-.177h1.121l-.472-.236-.915-.8v-.856l3.482-2.538,1.741-.738,1.652.443,1.269-.767.3.148.5.62,2.951-1.8,2.951-.649,2.951.59,2.8,1.859-4.368,2.007-1.83,1.21-1.358,1.505L274.81,68.7l.472.384.531.325h-.767v.62h1.121l.885-.177,1.475-.738.708-.708,1.328-1.918.413-.384.885.325.915,1.328.944.325.413-.561-.207-1.239-.62-1.3-.531-.384v-.856l1.416.207.561.207.708.443.177-.679h0l.443-.177-.738-1.033,1.092-.472,2.951-.207,1.151-.738,1-.974,1.121-.561,7.7-2.42,2.538.177-.207,2.361h1.712l1.387,1,1.062,1.151.944.561,6.935,1.21.5.5.325.708v2.066l-.413.177-.62-.148-.826.207-.413-.354-1-.443-.885-.236-.443.531-.354.767-.8.767-1.594.944,1.977.384,1.151,1.535.944.62,1.416-2.538,1.092,1.623h1.387l2.951-.885,1.446.266,4.81,1.712,6.168.856,4.574,1.712,1.3.236,1.062.62,2.3,2.656,2.626.8" transform="translate(296.282 24.68)" fill="#FFD106" stroke="#fff" stroke-miterlimit="10" stroke-width="0.75"></path>
      <path d="M316.455,71.23l-.974.207-5.4,2.951L308.576,75.8l-3.158,1.712-3.748,1.092-1.712.885-1,.915-.974,1.948-.354.915-.266.974-.738,2.154-.708,1.269-1.535,1.505-1.151.177L292.139,89l-.974-.62h-1l-5.282,2.685-9.591,1.18-5.371-.826-1.269.177-.885.649-.738,2.951-.885.974-.885.472-1.092.177h-5.548l-.472.708-.354.915-.354.8-.531.708h-.826l-1.83.118-2.331,1h-1.092l-1.062-.3-.915-.443-.8-.62-2.154-.531h-1.535l-2.154-.531-2.951-1.357-1.446-.177H235.3l-1.5.531-1,.531-.531.915-.354.8-.531.915-.649.8-.531.8-.266.826v.8l-.177.708-.443.738-.384.885-.885.885-1.062.384-1.535.177H221.4l-.974-.384-.826-.531-2.685-1.062-.443-.531-1.062-.384-1.446-.885-1.269-.974-2.331-1.535-.62-.826-.354-.885-.354-.974-.354-1.977-.561-.915-1.062-.62-2.951.708h-1.357l-4.928-.974-.915.443-.266.708-.177,1-.266.974-.708,1-1.977.974h-1.358l-1.358-.088L188,99l-2.42-.472-1.328.3-.62.708-.3,1.889-.443.62-.8.177-1.889-.531-4.4-2.154H174.57L172.593,99l-.826-.826-.885-.62-1.8-.443-2.774,1.239-.62,1-.384.885-.62.915-.531.708v1.623l-.354.62-.826.354-2.066.708h-2.951l-.443.561-.177.708.531.8.826.561,1.771.62.649.531v.885l-.384.915-5.282,2.951H154l-3.571,1.535-1.092.177-4.663-.443-.62-.443-.8-.384-1.357-.177H137.24l-1.889.354-2.1.5-.974.708-.8.8-.738.826-.8.8-1.092.62-.708-.177-.62-1.328-1.889-.915-3.305-.531-.915,1.269-.177,1.151-.443,1.092-1.712,1.948-.177,1.712.8,3.335v1.151l-.354,1.535-.62,1.328-3.187,3.9-2.243,3.128-1.092,1-.974.531h-.915l-.679-.266-.974.266-2.272,2.331-2.951,1.269-.443.354-1.151,1.623-.472,1.062-.266,1.269.354,1.771.649,1.269.708.885.62.826.266.885v.944l-.885.8-.885.531-.826.8-.443,1.18.266,3.777v1.594l-1.8,3.866-.177,1.18v2.508l-.885,2.508,4.486.177,4.4.974h1.062l.354-.354.177-.354.472-.443.974-.561,1.977-.708h1.357l.974.443,1.269,1.092.443.177,7.171,2.066,1.239,2.951-.177,1.092-.266,2.331-.266,1.151-.443.915-.8,1.062-.384.443-.708.266,5.017,4.22,3.423,2.243,1.535,1.712.443,1.239-.266,1v3.866l-.177.885-.472.885-1.151,1.535-1.357,2.508L127.059,206l-1.623,1.977-.354.974-.266,1.8-.649.177-1.859-.62h-1.446l-2.243.531-1.535.974-1.623,1.269-3.482,3.571-.8,1.18-.384.885-1.062,3.6-.708.8-.826.561-.885.354-.8.708-2.449,3.866-1.328,1.328-.354,1.092.177.8.708.708.708.561.738.177h2.066l.708.443.974,1.623.207.354v.62l-1.8,4.308-.354.974v.826l.443,1.239V245.1l1.416.708,2.42,1.889,2.951.62,6.256-.531,2.42-1.535.649-3.925,2.951.531,3.689,5.636,2.951.915,7.171-.266,3.423-1.092,1.328-2.951,2.42.974,1.446,1.623.354,2.243-.8,5.9.8.974,1.8.266,2.6.826-1.151,2.6L149.6,271.457l-.443,1.239-.708,1.092-.62,1.328.354,1.18.62,1.062.443,1.358.266,2.42.561,2.685,1.328,2.154,2.951.974,1.062-.266,1.446-.708,1.417-.974.649-.826.708-.62h1.328l8.174,1.712,4.928,1.771,4.486,2.951,4.308,4.486,1.357,1.977,1.062,1.328-4.84,7.082-2.6,2.685-.62,1.357V310l.266.885v.885l-3.777,6.2v1.18l-3.128.177-1.357.531-1.357,1.062h.384v1.8l-.3.708-.354.207-1.239-.3h-.443l-3.158,5.223-3.217,3.305-3.246,2.508-5.9,2.6-.915.649h-6.64l-1.771.354-1.092,1.269-3.571,5.371-.826,2.066-.531,1.062-3.6,2.951-1.239,1.594-.354,1,.177,3.305-.826,2.331-3.925,5.9-1.446,1.446-2.685.266-6.2-.561-2.154,1.092-.354,2.508-1.062,1.712.177,1.682.974,1.446,3.128,3.423,1.446,2.331,2.154,5.371.885,2.774.826,1.18,1.505.354,1.092.8.443,1.712-.354,1.712-1.712.531v4.22l.354,1.328v.826l-.266.708-.177,1.269v2.6l.177,1.889,1.269,4.309.8,4.368.266,2.449v1.505l-.708,2.243-2.331,4.309-.62,2.066.177,2.331.885,1.357,1.18,1.151.974,1.8.62,2.243-.354,1.623-2.331,3.305-1.889,4.663.649,4.309,2.331,3.777,3.394,3.128-1.8,3.217-.885.915-4.9,3.482-.62.738-.354.974v1.18l1.239.974,1.8,2.066.974.708,1.092.531.974.3h1l.974-.472h1l.708.266,1.889.207,3.305-1.712h.8l1.977,1.062h1l1.062-.443,1-.62,1.328-.531,6.994-1.269,1.446-.62.885-.649.649-.708.266-.885v-1.092l-.531-1.771V463.3l.531-.8.62-.826,3.128-2.42.826-.443,2.066-.8.708-.443,3.777-1.446,2.154-2.243.8-.531,1.062-.443,2.951-.649.974-.62.531-.885.384-1,.443-.8.708-.738.915-.708,1.062-.62,1.712-.266,1.328-.443,1.269-.561,3.394-2.508,1-.531,1.239-.177,1.712.354,3.423,2.243,1.062.8,1.623,1.712.885.531,1.977.561V450.2l.8.738,1.269.62,2.066.8.531.649v.531l-.62.974v.443l-.266.561-.354.531-.177.531-.3,1-.266.531-.708.443.354.531,1.269.738,3.482,1.328,2.243,1.358,1.357,1.062.885,1.092,1.357,1.062,3.571,1.889,2.715.974h1.239l.915-.443.708-.8.443-.885.354-1,.266-.885.443-.826.649-.531.708-.443,3.423-1,2.066-1.062.974-.266h.885l1,1.357.354,1.062v1.18l-.266.885-.915,1.535.3.8.62.531,2.066.177,3.482-1.239,4.131,1.682,2.951,2.066,3.158,2.951,2.331,3.217,2.6,1.535,3.866,1.328,3.925-.177h.649l.8-.266.8-.354,1.358-1.446.708-.8,3.423-2.951,5.105-1.535h1.889l.443.531v.738l-1.151,2.774-.3.885V478l.384,5.9.708,1.8.531.8.354,1,1.8,2.951,9.768,1.269L286,493.048l1.151.8h2.331l1.623-.384.974-.354.531-.561.354-.531,4.22-2.951.354-.62.8-.974.8-.738,1.18-.62,2.6-.8H304l.708.531.62,3.689.531.708,1.446.443,2.243-.531,1.446-.62L313.239,488l.708-.8.443-.826.443-.974.177-1,.826-1.594,1.062-1,1.712-1.062,1.062-.915,2.272-1.328,1.594-1.446,1.269-1.623.177-1.151v-1.092l.531-1.771.62-.649H328.2l4.751-.62,2.154-.708H336.2l.531.8v1l.177.974.266.885.443,2.951.266.974.561.708.708.649,1.977.885,1.357.354h1.328l2.331-.531,2.951-1.357,1.416-2.243.8-4.4,1.269-2.685.531-.8.177-.974v-1l-.531-1.712-.177-.974v-1.18l.531-.62h.738l.708.62,1.062,1.712.649.443.443.266,1.712-.177.974-.354,1.18-.8.8-1.18.974-1.977.384-1.239.177-.915v-.8l.354-2.154.354-.8.885-1,.561-.443.62-.266.62-.177h.62l.826.177.531.266h1.062l.738-.354,2.951-.266.974-.443.177-.708-.531-1.889.826-2.951.354-1.062L375,443.8v-.826l-.266-.885V439.1l-.177-.708v-1.977l-.177-1.062V434l.62-1.239.8-.826.738-.443.443-.443.266-.443.177-.443.354-1.446v-1.889l-.266-.974-.354-.915V423.7l.443-.649h.708l.561.561.708,1.594.62.561.915.354.885.177,1.889-.354,1.8-.738,1.062-.266,1.092-.443.974-.8.266-1v-1.977l.266-2.066v-.885l.738-2.6,2.951-4.22.354-.8,3.866-5.9,1.062-.974,1.977-1h1.269l1.151.266.826.384h.885l2.331-.472.62-.266.561-.531.443-.974.443-1,.708-1.889.177-.974v-1.977l.177-.974.472-1.092.62-1.269.354-.974v-.974l-.354-1.889.177-.915.354-.885,1.357-2.42,1.416-1.8.915-1.328.885-1.092,1.092-.885,8.587-2.951,1-.531.885-.708L429.007,372l.531-1,.62-.974,1-2.066.974-1.062,1.446-1.446,4.4-2.951,1.977-2.066,1.771-2.331.561-.915.8-.974.974-1,3.246-1.948,4.663-1.092,1.8.266.8-.266,7.82-5.9,2.331-.561.708-.443.266-1.062.266-1.977v-1l-.443-.8-.531-.8-.354-.649.266-.354,2.774,1.092,5.017.266,4.84-.915,1.18-.708h2.951l2.951-3.482,2.154-1.18,11.568,2.774h3.512l6.64-.885,2.243-.531,1.623-1,.354-.885.531-.738.531-.708.915-.443,1.151-.354h1.269l1.771.885.561,1,.266.974.177,1,.531,1.859.8.826,1.18.62,3.866,1.062,2.508-.177,1.062-.62,1-.62.885-.443h1.092l1.24.266.8.885.561.915.62.885,1.062.62,1.8.531,2.42.384,1.712.8.8.885.561.738.8.354.8-.266h1.8l.62.885-.266.708-.443.826-1.534,1.062-.177.531.826.649,1.712.974.531,1v.8l-.826,1.535.177.62.826.443,1.151.177,1.623-.708.974-.531.915-.384.974.649.443.885.472.885.177.915.354.62.266.354.531.472,1.269.531.62.531.354.708.62,1.977.384,1,.8.8,1.092.708,2.686,1.18h1.328l3.335-1.712,1.151-.354,1.269.354.708.62,1.8,1.092,1.357.177,2.6-.531,1.417-.472,1.357-.62,1.151-1.062,1.18-.738,1.8-.266,2.331.354h.885l1-.266,3.217-3.128.8-.531.826.266.62.62.708.708,2.508,1.535.649.62.531.826.62.62.8.266.561-.266.266-.8-.354-.826-.177-2.508.974-3.394V353.7l-.885-1.092-1.711-1.712-.915-.384-.885-.266h-1l-1.859-.266-.826-.354-.708-.62-.354-1-.266-5.017-.826-5.017-.177-.915-.443-.708-.8-1.8.206-4.309.531-2.42.708-.974.561-.531.708-.177.708-.561.62-.885.561-.974.62-2.951v-2.243l.177-.974.265-1,.531-.885,1.18-.62,2.951.443,1.712.531.708.62.472.738.177.974v1l-.177,1.151v.915l.354.8.708.443h.8l.826-.354,1.771-1.358,1.623-.885,1-.266.974-.266.915-.354.531-.561-.649-5.636-.354-1.18-.62-.885-.708-.915-.561-1.417-.354-2.243.266-4.663-.62-3.777-.62-.62-.177-.915v-.885l.265-.885.708-.915.62-.443.561-.266.531-.177H612l.826.354,1.859.62.915-.177.62-.62.62-.885,1.712-2.066,1.889-1,.885-.8,1.18-1.358.974-.531,1.092-.177h.885l.885-.443.915-1.18.8-2.243.649-1.328.443-1.18.266-1.8-1-1.239-.708-.443-.62-.738L626.9,274.5l-.826-1.712-1.682-2.6-.738-.8-.266-1,.266-1.151,1.092-2.066.62-.826.443-.974.354-1.092.177-1.062v-1.062L624.3,257.2l-1.534-4.308-.62-6.551-3.866,2.154-.8.649-1.8,1.062-1.092.443-1.062.266-2.42.3-1-.3-1.062-.974-1-.708-2.508-1.092h-1.682l-5.578-1.416-.974-.649-.531-.8-.561-1.977-.177-.974.177-.826.561-.62.354-.443h.177v-.531l-.266-.738-1-1.712-2.42-2.036-.531-.826-.354-1.062v-1l.177-.885.62-.62.708-.472.738-.62.531-.8v-1l-.531-.8-1-.62-1.5-.443h-1.889l-1.8.207-5.548,1.948h-1.18l-.974-.708-.561-.974-.354-1v-.974l-.266-.915-.266-.885-.531-.531-.915-.531-5.223-1.151-6.286.472-2.774.885-1.269,1.151-2.243,1.623-.885.443-2.154-.354h-.531l-.354.738v3.04l-.177,1.8-.472.708-.531.531-.531.354-.62.649-.561.8-.443,1.062-1.062,2.154-1.092,1.712-.266.708-.177.384v.266h-1.8l-2.951-.354-3.6.266h-1.594l-1.889-1.535-1.18-.443-1.151-.266h-1.771l-1.446-.738-.443-.885v-.885l.266-1.092.472-.974.266-.915.354-.885,1.24-1.269.561-.8.354-1.977v-.974l-.177-.915-.266-.8-.826-.443-1.062-.354-2.685.266-1.18.8-1.151,1.535-.472,1.062-.531,1.092-.177.974-.177.915.266.974v.974l-.531,1.269-1.18,1.239-2.685,1.623-3.128,1.535-3.954-1.18-.708-4.574-.443-.8-.207-.974-.443-.915-.62-.8-.8-.266h-.915l-.885.177-1.446.177h-3.659l-1.535-.8-1-1.535-.354-1-.443-.885-1.062-1.623-1.623-1.062-.708-.531-.649-1.8-.266-1.092-3.305-5.105v-.708l1.239-1.092.649-1.062,1.151-4.22.177-1.623V201.4l-.354-1-.266-1.062-.177-1.092v-2.331l-.177-.974-.649-.708-.354-.826.177-.708,1-.531,1.977-.354.62-.561,1.623-2.951v-.974l-.266-1v-4.1l.885-2.774v-.8l-.266-.915-.531-.8-.3-.885-.531-.738-1.505-1.062-.3-.915.3-1.062.708-1.712.266-1.239V168.23l-.266-.8-.531-.62h-.826l-.8.177-.8.354H496.2l-.443-.561.177-.974,2.951-3.394.384-.826.62-.885.708-.826.62-1.062v-.885l-.354-1L499.8,155.3l.354-.885,1.535-.708L506,153.18l6.522.8,1.534.708,2.685.531,6.994-2.42-.443-1.594-1.062-1.357-6.552-5.518-2.6-1.18-2.508-3.217-1.623-.738-1.889-1.328-2.951-2.685-3.246-1.712-2.951,1.417-2.508.826-.443-.177h-1.269l.354-1,.354-1.239-.531-.915-.708-.62-.62-.8-.472-.915v-.974l.384-1.092.826-1.358,1.151-1.446,1.092-1.8.62-1.328.266-1.623-.354-.974-.708-.443-.915.177-1.416,2.066-.738.8-.8.443h-1.889l-.974.177-.826.531-.708.738-.443.8-.354.8v.826l-.177.708-.561.266-.708-.266-.708-.531-2.951-3.954-1.416-1.357-.354-.8v-.885l.354-1,.531-.885,1.446-1.623,1.151-1.623.472-.974.62-.885.885-.826,3.6-.354,1.239.177,1,.354.885.472.62.708.472,1.8.62.708.708.354,1,.354,1.977.266.974.3.974.177h.915l1.594-.472h2.154l.915-.177.708-.62,1.358-1.151h.8l1.357-.472.443-.443.354-.531.177-.708v-.826l-.531-.885-2.951-1-1.358-.885-.885-1.062-.561-.738v-1.239H504.7l1.889-.354h.885l.266-.3.443-.443.3-.8.266-1.18-.266-.8-.738-.8-1.889-.649-.767-.738V98.143l-.443-.62-.915-.266-1.771.885-1.889,3.954-1.18.443-.708-.177-2.951-.177-2.951-.885-.8-.472-.531-.443.443-.885.62-.885.649-1.535V93.835l.531-2.508V89.733l-.62-1-1.8-.708-.531-.8-.207-1.18.826-2.154.531-1.151,1.8-1.357V80.024l-.354-.443-.561-.443-2.243-.354h-3.394l-2.243-.354L482.686,76.9l-.531-.266-.679-.177-.915.177-1.062.354-8.587,5.371-6.2,2.331-2.774.3L458.99,84.6H457.1l-1.889-.354-2.774-1.328-2.774-.738-2.951-.443-.885-.443-1.535-1.269-.885-.354h-1.18l-1.416,1-1.977,2.154-2.42,3.217-1.535,1.623-1.151.974-1.8,1-1.623,1.417-.885.354-.915.207-2.951-.207h-.974l-.915.3-.62.531v2.42l-.354,1.328-1.269,1.357-.974.531-1.535.561-1.623.885-2.036,2.243-1.889,1.239-.826.384-.8.62v.177l-.885,1.623-2.243,6.463-.207.974v.974l.472,1,.62.885.885.649,1,.354h.974l1.8-.561,2.39-1.535.708-.738.915-1.682.443-.826.8-.266.915-.266.885.266.738.708.708.915.531.885.177.826-.531.974-2.951,1.977-2.951.177-.177.531v.738l-.62.531-.266.708.443,1.623v.974l.354.826.738.531h.885l.8-.531.826-1.269.708-.974,1.239-.649h1l.8.472.443.974v1.062l-.207,1.446.3,1.092.708,1.417.266.649v1.859l-.531.915-1,.531h-3.482l-1.8.354-3.423,3.246-1.151.62-1.977.62-1.712.266-3.305-.856.266-2.154v-4.84l-.266-.266-.826.354-.8.62-3.04,6.286-3.954.974-.974-1.8-.561-.708-.885-.62-1.092-.443-2.6-.177-1.151-.472-1.977-1.682-.708-.826-.266-.708.266-.8.8-.472,1.8-.62h.885l.915-.354.531-.708.354-.915-.177-.974-.708-.738-.915-.443-2.42.738-.974.62-1.269,1.062-.443.266h-.8l-.738-.266-.531-.708-.177-.708v-1.357l-.177-.885V120.66l-.266-.885v-1.092l-.177-.885-.472-1.977-.177-1.889v-2.066l-.266-.974-1.682-1.092-10.152-3.836-1.446-1-.62-.974v-.177l-.354-1.092L366.387,99.5l-.885-.708-2.42-1.357-1.269-.354H360.1l-1.771,1.062-1,.472h-1.535l-1.239.266-3.423,1.859H349.8l-3.6-.354-3.748.826h-5.135l-1.594.443h-2.154l-.738-3.512-.443-.885-1.977-1.977-.62-1.239-.531-1-4.131-2.154-1-.8L323.42,89l-.531-2.154-.266-1.505.443-7.348L320.41,73.5l-1.977-1.594-1-.354Zm215.808,60.555-6.522.443-1.062.266-.531.649-2.066,3.217-1.535,1.623-.177.974.531,1.18,2.42,2.508,2.685,1.977,6.2,2.951,6.905,1.623,5.017,2.066,7.732.266.708.177.531.266.177.443.472.443,1.239-.177,1.092-.62.266-.531-.177-1.712-.384-1.269-.177-.8-.266-.8-.354-.354h-.62l-.531.354-1,1.062-.62.354-.62.3-.649-.207-.62-.354-.974-1.416-.472-.649-.531-.531-.531-.531-.354-.531V143.8l.177-.531.531-.354,1.269-.354.531-.443.354-.561.974-1.859.207-.649.177-.62.177-1.062-.266-.472H550.5l-.8-.177-.915-.62-.62-.62-.354-.531-.531-.384h-.649l-.885.384h-2.243l-6.2-1.889-1.417-.738-1.092-.266Z" transform="translate(147.751 51.78)" fill="#FFD106" stroke="#fff" stroke-miterlimit="10" stroke-width="0.75"></path>
      <path d="M183.21,292.035l1.387-2.272.856-4.456,1.269-2.685.531-.738.207-.974-.177-1.033-.531-1.682v-2.213l.561-.561h.708l.679.561,1.121,1.682.59.531.5.177h1.712l.974-.325,1.18-.826.767-1.18,1-1.948.384-1.239v-1.712l.325-2.184.384-.767.885-.974.531-.472.62-.325.62-.148h.679l.8.207.561.236h1.033l.738-.354,2.951-.207,1.033-.5v-.708l-.5-1.83.8-2.951.413-1.062.148-.885v-.885l-.236-.856v-1.623l.148-.708v-5.9l.679-1.269.767-.708.738-.531.413-.384.266-.443.177-.472.443-1.475v-1.83l-.236-.974-.354-.944V238l.443-.679h.708l.531.561.708,1.564.679.561.856.354.915.207,1.889-.325,1.8-.767,1.033-.266,1.092-.413,1.033-.856L223.7,237v-1.977l.3-2.125v-.856l.679-2.626,2.951-4.22.384-.826,3.9-5.9,1.062-.974,1.977-1h1.239l1.121.236.856.354h.915l2.3-.472.59-.207.59-.561.384-1.033.472-.944.708-1.948.207-.974v-1.948l.177-1,.443-1.062.62-1.21.325-1.033v-1l-.354-1.83.207-.944.325-.915,1.3-2.361,1.505-1.859.856-1.328.944-1.092,1-.856,8.676-2.951.974-.561.885-.679,1.387-2.154.5-1.033.59-.974.974-1.977,1-1.18,1.505-1.357,4.338-2.951,1.948-2.036,1.8-2.331.62-.944.767-.974,1-1,3.187-1.948,4.663-1,.413,2.331,3.807,3.777,1.062,1.8.915.944.767.561,2.331,1.18.767.207.944.413,1.18,4.545,1.476,4.1v1.83l-.3,1.239-.8,1.712-.354,1-.413.974-.856,2.951-.384,1-.472.974-.325,1.269-.354.915v1.062l.5,1.092v1.357l-.413.708-.561.531-.443.207-.472.384-.354.5-.266.62-.59,3.866-.177.8-.531,1.328-.62,1.239-.325.531-.384.443v.5l.266.443.708.472,2.951.915.738.826.649,1.446.236,1.328v1.8l.354.915v1.033l-.354.826-1.239,1.741-.354,1.151.384.8.649.767.649.649.8.354,1.535-.384,1.446.148.5-.531.325-.679h.738l.826,1.092,1.416,2.538,1.151,1.21,1.062.708.767.177.738-.354.531-.325.62.266-.59,2.951-.177,3.6.443,1.121.59.885.885.531,1.387,1.328.3.885.207,1.062v.59l-.207.443-.236.354-.177.561.177.443.354.325h.708l.59-.177.62-.443.679-.384.62-.236.915.148.826.413.708.679.8.62,2.1,2.066.3.767v1.092l.207,2.626-.148,3.718.384.944.708.531.915.207,1.121.62,1.21,1,1.535,2.567.325,1.475-.148,1.062-.236.531v2.331l-.148.62-.3.59-.413,1.21v.649l-.207.708-.472.738-1.416,1.416-.62.944-.266,1.446v1.18l-.354,1.151-.266,1.269v1.387l.266,1.859.738.944h.649l.708-.679.62-.826.708-.826,2.626-1.918h.944l1.151.8.856,1.682.885,2.331.354,1.535v3.954l1,5.223-.767-.207h-.384l-.3.5.148,1.18.384.915.236,1.033.354.885.413.856.62.738.354.856V307l-.561,1-1,1.062-1.535,1.269-1.977.62-5.017.236-.207-1.3-.384-.561-1.8-1.033-4.072,1.358-6.168,3.04-4.161.708-1.239.413-1.121-.207-1.889-1.475-3.453,1.535-9.65-.384-1.328,1.18-.708,1.416-.443.708-.885.413-4.013,1-.826.413-.62.443-.708.679h-.148l-1.889.5-1.564.59-.472.561v1.83l-.266.679-.826.443-2.331.679-1.771,1.269-1.151.5-1.83.207-.974.649-.767.384-.679.59-.915,1.121-1.446,1.358-.856.384-1.594,1.269-.738.885-1.21.325-1.593-.266-3.187-2.007-1.21-1.121-.443-.944.915-.8,1.18-.649,6.286-2.007h1.21l.5-.413,1.623-1.889.59-.443,1.859-.561,1.594-1.357,4.692-4.987,1.3-.767h.738l1.18-.767.5-.413.207-.472.826-1.269.266-.561.885-2.685v-2.626l-.384-.649-1.033-.885-4.928-2.449-1.859-.148-1.594-.472-1.387-.207-2.538.413-1.18-.325-.59-.266-.708-.5-1.564-2.243-.679-.561-.8-.266-1.741.472h-.915l-.974-.767-.531-.767-.561-.531-.5-.354-4.781-1.239-3.217-1.564-5.371-1.712-1.239-.59-.915-.767-.472-.885-.649-.915-.767-.738-.915-.62-2.154-.885h-.885l-.885.738-.974.59-1.357.472-1.889-.325-1.594-.5-2.951-2.951-.5-1.18-.767-.561h-.944l-2.479,1.564-2.567.443-1.092.8-.561.679-.708,1.416-.856,1.269-.679.738-1.416,1.21-.5.266h-.413l-1.387-1.594-1.564-.62-.885-.767-.679-.767-.767-1.771-.266-.885v-.944l.266-1.948v-.885l-.384-.767-.62-.531-.59-.177-.531.207-1.239,1.889-.472.974-.649.885-3.217,2.833-.5,1.033-.944,1.092-1.387.974-2.951,1.328-1.269.767-.974.885-.472.8-.944.531h-1.239l-1.653-.354-2.272-1.475" transform="translate(313.841 237.536)" fill="#FFD106" stroke="#fff" stroke-miterlimit="10" stroke-width="0.75"></path>
      <path d="M398.92,89.44l-2.774.177-2.243.915-.531,1.948.265,2.951-1.446,3.836,1.092,1.535-.738.531-.354.649-.62,1.328,1.446.561,1.151,1.505.708,2.066V109.6l-.266.354,1.357,1.092,1.889,3.571,1.328,3.866.826,1.062.974.826.8.354,2.066.443,1.092.531.354.649v.62l-.354.8-.177.738-.177,2.007v.826l-.177.62-.3.531-.443.826-.531,1.151-.531,1.18-.443.531-.384.708-.354,1.18.266,1.505-.266.738v.354l-.354.266-.443.177h-1.18l-.62.443-.266,1.18.177.974.531,1.092.177,1.062V143.3l.384.974.354.561.354.354.443.443.62.885.561,1.623.8,3.305.443,5.9V161.3l-.531,1.712v2.42l-.177,2.42-.177.885-.915,2.508L400.9,172.6l-.443.531-.177.62-.826,4.308-.354,1-.266,1.239-.177,1.446.266.8.266,1.357-.266,1.417-.354,2.951-.354,1.417-.531,1.269-.915.708v.62l-1.5,5.577-1.446,2.951v.915l.177,1.062-.443,1.446-.531.708-.384.531-1.151.443-.708.649-.472.708-.708,1.446-.531.531-.62.354-.826.177-.885.531-.826.738-.62.8-.354.885v.826l1.357,1.239.885.649.354.62.266.885.177,4.4-.354,1-.708.708-.62.885-.826.384-1.417.974-.915,1.535-.708.974-.885.62-1.889.472-.826.354-.531.443-.443.531-1.357,2.243-.974,2.154-.885,1.18-1.092.62-3.394.62-.738.266-.708.354-.354.561-.649.885-.177.708-.708.649-.708.8-1.357,2.243-2.42,2.154-1.357,2.154v1.062l.207,1.092,1.328,3.305.443,2.951.384,1.062.531.8.885.472,2.951.354,1.092-.177.974.177.915.354.531,1.062V262.4l.265,1,.443.885.354,1.269-.266.8-.531.8-1.977,2.331-.531.826-.354.8-.177.531v.177l-.177.384-.266.266-.738.354-2.951.885-.974,1-.3.708v5.194l-1.062,3.689-1.357,2.066.266,2.685.826.177,1.712.8,1.239,1.357,1,1.8.266,2.331-2.508,5.636.177,2.951.62,3.128-.266.266-1,.62-1.151.649-1.534.974-.708.915-.531,1.062-.177.974v1.092l-.738,2.508-.62.885-.8.649-.915.443-1.8.443-.62.62-.354.738-.62.62-.915.177h-.885l-1.092.62-.531.826-.177,1.062-.177,1v.974l.354.974.354.738.472,1.8,1.151,3.571,1.535,1.358,1.416.62,1.712,1.269,1.535,4.84-.443,2.951-.561.974-.354,1.358-1.358,2.036-.472.8-.177,1-.354,1.062-.354,1.092-.177,1.328.62,1.977.177,1.062v1.358l.384,1.092,1.062,2.42V362l-.354,1-.531.8-1.977,2.243-.826,1.8-.708.708-5.459,3.305-.561.472.561,1.682,2.6.472,2.066-.472.443.649.266.885.531.974,1.18,1.18,2.243.62,1.239.915,1,.974-.177.885-.561.738-.354,1.062v1.18l.738,1.977.974.974,2.331,1.269,7.171,2.508,2.951,1.712,1.18.8.708.885v.856l.354,1.062.738,1.092.885.708,6.286,2.685.443.354,3.158-7.7,1.505-2.331,1.712-1.771,1.977-1.358,8.233-2.685,2.951-.266,2.154,1.18-4.84,4.574-3.246,1.417-3.659-.62,1.771,3.217h2.508l2.626-1.859,2.154-2.154,4.928-6.374,2.774-2.508,6.463-1.889,1.594-1.092,1.092-1.859.62-.472.738-.531.266-1.062-.266-.738-.649-.354-.8-.266-.62-.443-1.357-1.535-2.685-2.154-2.331-2.951-1.18-1.18-1.417-.708h-1.623l1.357,1,.354.974-.561.62h-1.151l-2.951-1.151-2.685-1.535,1.859-3.866,9.148-8.853,5.489-7.26,11.391-11.3,3.305-2.331,3.866-1.8,4.22-.8h4.4l.8.266,2.331,1.446,1.092-.531.531-.738.354-.974L450,324.4l.708-.62,7.082-1.505,25.29-9.532,8.528-.62,19.123-5.194,3.394.177,1-.266,2.036-1.269,6.728-1.712,6.905-.708L534.844,302l7.082-3.866,3.335-3.128,2.951-3.954,4.84-8.617,2.685-3.689,2.951-2.243,7.525-3.217,5.9-3.954,2.036-2.154,20.362-9.414,13.014-8.351,1.092-.177h1.151l.885-.177.472-.974.266-.62,1.623-1.357.443-.354,1.062-.266.738-.826.62-.885.708-.708,1-.472,3.128-.443,3.866-1.712,13.457-9.945,5.282-5.548,7.437-4.751,1.711-1.712,1.269-3.512,2.42-4.309.354-2.6-.472-.974-1.859-1.623-.443-.708v-.915l-.531-2.774-.354-.974-.266-1.889.354-2.774v-2.951l-1.24-2.951-1.446-1.151-3.423-2.154-1.682-1.712-.561-2.42v-3.335l.8-5.017,1.151-2.951,1.269-1,9.768.472,1.623.8.708-1.446.915-.708.8-.974.354-2.066.354-1.357,2.331-4.751-2.42-1.623L661,157.874l-1.092,1.092H659.2l-1.357-1.889h-2.331l-2.243.354-.974-.974-.443-1.269-1.8-2.951-.531-1.8v-1.623l.531-2.951-6.817,1.151h-2.685l-2.508-.266-2.066-.62-1.269-.8-.885-1L632.995,143l-.62-1.446-.56-.3h-2.951l-1.062-.266-1.711,1.151-3.217-1.239-3.335,2.508-1.682.354h-1.711l-1.623.177-1.623.974-2.951,2.951-1.623,1.062-2.036.354-3.954-.62-2.066.177-1.8.915-4.22,3.305-.8,1.18.885,2.6,1.269,1.417v.561L592.92,159l-2.243-.472-4.663-1.505h-1.889l-.826.708-.8,2.243-.708.62H580.7l-1.062-.354-2.066-1.151-1.889-.472-1.889-1.505-1.594-2.154-.738-2.154h-1.594l-3.158-.708-5.9-2.951-1.269-.974-2.774-1.535-3.158.354-6.168,1.889-4.751-.531-1.623.708-.531.738-.738,1.948-.443.826-2.42,1.889-1.711,1.771-1.151.738-1.623.443-2.685.266-1.357-.177-1.24-.8-1.889-1.712-.974-2.154-1.357-5.017L520,144.86l-1.889-.177-2.331-.531-5.666-3.866-2.066-.885-6.079-1.092-1.889-.826v-.708l-.177-.266-.3-.266-.974,1.151-1.151.561H496.3l-1.151-.472-.3-.443H494.5l-.266.177-.354.443-1.062,3.689-3.246,1.357-6.374.8-.531.62-.443.826-.62.708-1.18.62-.8.177-6.109-.8-1.18-.915V143.06l-2.951-4.486,1.711-.826.531-.177,1.977-1.417L473.345,134l-1.8-1.535-2.243.266.266-1.535,1.712-2.951v-.531l-.8-.531v-1.269l.531-1.417.443-.826-1.417-1.889-1.712-4.663-1.889-2.685-1.8-3.217-.885-.443h-.915l-.531-.561.443-1.977-2.331-.62H448.055l-3.423,1.092h-1.062l-1.8-1.269-.974-1.889-.738-2.154-.974-1.889-1.8-1.594-2.154-.738-8.529-.531-.8-.443-1.623-1.357-.885-.354-.974.354-1,.738-.974.531-1.092-.443-1.505-1.623-.915-.62-2.951-1.18-4.4-2.6-1.711-.354-1.977.266-1.771-.443L400.6,89.765Z" transform="translate(628.93 87.308)" fill="#FFD106" stroke="#fff" stroke-miterlimit="10" stroke-width="0.75"></path>
      <path d="M376.4,273.09l-5.9,1.505-.974.561-.915.8-2.6,2.6-5.725,3.128h-1.092l-.8-.561-.443-.8-.62-.62-.738-.177-1.505.8-1.712,1.534-2.951,3.748-1.682,3.6-.266,1.977v2.862l-.472.885-.62.826-1.151.8-.915.915-1.239,2.243-.266.62-.207.708v1.535l.177.443.354.8.531,1.712.354,2.066.266,4.043v2.154l.561,2.951V318.8l-.177.885-.443.915-.974,1.062-7.259,5.9-5.9,1.889h-.915l-.974-.177-.885-.384-1.357-.62-.531-.354-.443-.531-.472-.62-.177-.649v-1.328l.266-.738v-1.239l-.354-.531-.443-.472-.443-.354h-.708l-1.623.354-.62-.354-1.18-.708-.62-.177h-.738l-.974.266-.708.354-.738.708-1.239.384h-.8l-.177.177v.708l-.3.708-5.282,3.246-3.777,2.951-2.508,1.357-1.505.62-3.246.531-2.685,1h-.8l-.649-.384-1.682-1.594-.738-.472-.885-.177-1.062.177-1.623,1.092-2.685,3.128-4.22,3.866-1.18.62-1.977.443-1.151.384-1.269.8-2.951,2.774-.974,1.712-2.951,5.9-2.951,4.19-3.9,4.574-.531.915-1.446,4.486,3.512,2.6.8.708h0v.177L265,372.1l2.066,3.158,2.951,3.394,2.331,1.357,3.777,2.508,4.663-.354,1.24.443,3.6,1.8,9.5,1.328.708.649v.708l-1.151,1.535-.443.885-.177.885v3.069l-.738,1.977v.8l.266,4.486.354,1.357v.8l-.384,1.712-.443,1.24v6.109l.354,1.269.443.8.826,1.062,15.08,23.343,1.151,1.151.8.443.738.384.62.177.177-.472.177-.62.443-.531h.472l5.194,1.24.885.354L329,447.17l2.331-1.594,5.105-2.243,1.535-.266.885-.384L340.837,441l.915-.649h.708l.531.443.531.177.915-.738v-.8l1.062-4.131.266-.62.384-.62.708-.738.8-.531.531-.266,1.977-.443L351.874,431l4.4-4.4,1.623-1.062,1.8-.62,4.663-.472,5.548-1.505h1.18L374.744,424l.62.649.561.531.443.266,5.105,1.535,2.154.266-1.328-1L382,425.1l.561-1.269,1.062-.974,1.623-.531,1.8-.177h6.345l3.335.649,3.954,1.977.885.62,2.508-1.623,1.357-.708,1.328-.266h3.777l2.951-1.534,1.623-.354,2.774-.974,1-.649.8.649h.885l.915-.561.8-.885,1.535-1.092.354-1.505-.62-1.535-1.269-.708-.62-2.066-1.357-4.663-.177-2.951.915-2.8-.561-.8-.531-1.269-.354-.531v-.62l-.177-.266h-.443l.354,3.571v4.131l.443,3.777,1.889,4.308-.738,1.328-1.948-.266-2.361-1.151-3.217-2.066-.974-1.269-3.246-5.9-.443-2.42.885-1.712,2.243-.708,1.357-1.092,2.42-6.64,2.685,3.305.531-1.239-.443-5.017h0l-1.889.354-.708-.177-.443-.266-.531-.561-.826-.62-.8-.531-1.8-.531-.8-.443-4.721-4.132-.708-.649-2.951-3.217-.62-1-1.062-2.42-1.446-2.154-.708-.885-1.092-1.977h0l-1.623-3.217-2.036-3.423-.472-.531-.62-.531-.62-.915-.62-1.328-.561-2.331-.177-2.508.443-2.331.561-1.357,2.951-4.486.8-1.8.266-.974.649-4.043.354-.885.354-2.154v-1.534l-1.534-5.105-1.062-1.8-.531-.531-1.18-.738-3.777-1.328-1.859-.266-.915-.354-.443-1.18-.266-1.977V316.5l.266-1.977.62-1.357.738-.974,3.836-3.512.649-.8.443-.974.266-1-.177-2.951.354-1.977.974-3.512v-3.394l-1.682-8.263-5.578-4.131-2.774-2.538-.443-.8-.177-.885v-1l-.177-.8-.649-.708-.8-.472-3.6-1.151Z" transform="translate(462.352 445.613)" fill="#FFD106" stroke="#fff" stroke-miterlimit="10" stroke-width="0.75"></path>
      <path d="M362,86.757l-.207,3.364v1.653l-.885,1.889-1.239,2.213-.3.885.207.826.443.561.915,2.508.3,1.918-.148,1.357-.325,1.151-.62.826-.767.62-.8.207-.59-.472-.561-1.564-.679-.5-1.859-.443H353.8l-.944.177-1.535.944-.708.8-.413.767-.531.384-.944.5-2.1.207h-.974l-.915-.207h-1.033l-1.062.325-1.21.679-.59.826-.207.915.266,1.889-.236.944v2.066l-.266,1.18-.649,1.505-.826.649h-.915l-1.918-.413-.974.177-.944.354-2.951.472-1.21-.148-2.921-4.663-1.948-1.623-.974-.3h-2.007l-5.341,2.951-1.564,1.446L312.13,118.3l-3.777,1.062-1.712.885-.944.885-1.033,1.977-.384.885-.177,1-.738,2.184-.738,1.21-1.535,1.505-1.18.177-1.033-.325-1.033-.915H296.9l-5.253,2.656-9.62,1.151-5.371-.826-1.3.266-.885.59-.738,2.951-.856,1-.944.384-1.092.266h-5.489l-.531.679-.266.856-.443.885-.5.679h-.8l-1.859.266-2.39.974h-1.033l-1.033-.266-.915-.5-.826-.62-2.184-.5H251.1l-2.184-.472-2.951-1.417-1.476-.177h-2.538l-1.446.5-1.062.62-.5.826-.354.885-.531.856-.679.8-.472.826-.3.8v.767l-.266.738-.384.767-.384.826-.885.944-1.062.325-1.564.236h-4.013l-1-.354-.826-.5-2.6-1.062-.472-.59-1.121-.384-1.416-.826-1.269-1.062-2.39-1.505-.59-.8-.413-.915-.3-.974-.384-1.948-.5-.856-1.151-.649-2.951.679h-1.328l-4.928-1-.944.413-.3.767-.148.944-.3,1.062-.679.974-1.948.944h-1.387l-1.21-.089-2.774-1.121-2.42-.443-1.328.3-.62.738-.266,1.83-.472.649-.826.148-1.918-.5-4.4-2.184h-1.3l-1.977-.59-.8-.767-.944-.649L175.7,137.6l-2.951,1.239-.62.974-.3.915-.708.885-.472.767v1.594l-.413.59-.738.413-2.1.649h-2.951l-.472.561v.738l.5.767.826.5,1.8.708.62.531v.885l-.413.915-5.282,2.951h-1.417l-3.571,1.505h-1.092l-4.663-.413-.649-.5-.826-.3-1.269-.236h-4.722l-1.859.325-1.83.59-1.062.679-.767.767-.679.885-.826.767-1.121.649-.738-.177-.62-1.387-1.83-.915L129.2,155.9l-.561-5.164-.325-1.387-.885-1.21-2.331-2.361-.856-.354H122.32l-.944-.177-.8-.354-.826-.767-.236-.3-2.1-2.951h-.62l-.207.177V144.6l-.443.3-.443.207-.944-.561-1.357-.944-.5-1.564.236-1.505.649-.885.856-.266.767-.531.531-1,.3-1.328.3-.915.354-.8.354-.649.59-.384.679-.207h1.948l3.63-1.535.826-.5,3.777-3.394.177-1.21-.266-1.505-1.535-2.656-1-1.357-.885-.856h-.767l-.59.561-.443.826-.207.856-.5.708-.738.561-.944.384-1.889,1.151-1.682.738-.8-.266-.8-.59-.649-.8-.5-.974-.3-1.033v-1.328l.679-1.977v-1.594l-.649-.472-.8-.236-1.623-.826-1.092-1.505h-.679l-.767-.177-2.243-1.771-.738-.8-.59-1-.62-1.387-.826-5.9-.738-.738-.8-.561-.62-.118-1.357-1.446-.708-1.033-.62-1.416-.325-1.564V93.456l-.62-.885L98,92.1H96.293l-1.357-.649-.3-.649v-.738l.266-2.951.207-.915.59-.8,1.239-.325h1.092l1.033.354h1.476l.767-.5,1.033-.974,1.387-2.213,2.951-2.951.177-.207.413-1.712V75.9h.561l.59-2.243.3-2.3.59-1.889,1.357-1.033.885-3.217,5.9-1.3,9.856-.384,1.535.5,5.9-.5,4.131,1.239,2.626.3,5.518-2.951,5.135.531,5.135,1.859,3.659,2.007,1.062-.8,1.151-.3H165.7l-.177-.679-.236-1.535-.207-.62,1.387.266,2.361,1.387,1.446.325,5.164-1.062h5.194l1.446-.266L184.705,62l2.42-.62.62-.738.738-.679,1.387-.236,3.187,2.42,1.3.443,7.82.856,1.535-.856,1.594.767,1.505-.679,1.505-1.18,1.594-.738h11.657l.531-1.239-.649-1.033L221,57.394l1.269-1.446-.207-.443-.266-1-.236-.443h3.246l1.18-.649.443-1.682.708-1.3h1.594l3.246,1.623,2.184,1.889,5.666,7.023,1.859,2.951h.679l.531-1.948.767.59,1.18,2.42,5.223.856,20.244-.856,2.951.8.3,1.918-1.269,2.213-1.741,1.653.679.944,1.033-.62,2.125-.738,1.033-.531.738-.885.266-.944.561-.708,1.475-.266,4.249.384,1.594.59,7.23,4.869,3.453,1.239,8.646.413,2.42.679,1.062,1.771,1.21-.8,7.023,2.154.826-.3,1.446-1.269,1.18-.236,1.062.325,2.272,1.21,7.171,1.505,8.381,3.807,2.007.62,22.369,1.977" transform="translate(141.039 11.199)" fill="#FFD106" stroke="#fff" stroke-miterlimit="10" stroke-width="0.75"></path>
      <path d="M182.885,53.307l.443.59.767-.207.885-.413.148-.384V51.6l.8-.3h.679l1.712-.856.325,1.889,2.479,4.84-.3,2.184.885-.354,1.269-1.771.826-1.948,1.21.472.885-.738.974-1.092,1.5-.649,3.954.472,1.21.413,8.292,4.722,4.249,3.217,6.345,8.853,4.751,2.331-.354.59-.207.443-.3.384-.59.384v1.062l1.357.59.8-.354.767-.767,1.21-.531h1.476l2.066.738,3.807.561,6.138-.236,1.682-1.062,1.771.974,1.741.325,1.21.885v2.715l-.708,1.535-1.062,1.623-.531,1.918.915,2.39h0v.974l-.413,1.712-.177.207-2.951,2.951-1.387,2.213-1.033.974-.767.5h-1.475l-1.033-.354h-1.21l-1.239.325-.59.8-.207.915-.266,2.951v.738l.3.649,1.357.649h1.712l.649.472.413.826v3.364l.325,1.564.62,1.417.708,1.033,1.357,1.446.856.207.8.561.738.738.826,5.9.62,1.387.59,1,.738.8,2.243,1.771.767.177h.679L253,127.82l1.623.826.8.236.649.472v1.594l-.679,1.977v1.328l.3,1.033.5.974.649.8.8.59.8.266,1.682-.738L262,136.024l.944-.384.738-.561.5-.708.207-.856.443-.826.59-.561h.767l.885.856,1,1.357L269.616,137l.266,1.505-.177,1.21-3.777,3.394-.826.5-3.63,1.535h-1.948l-.679.207-.59.384-.354.649-.354.8-.3.915-.3,1.328-.531,1-.767.531-.856.266-.649.885-.236,1.505.531,1.18.767,1.3.944.561.443-.207.443-.3v-3.541l.207-.177h.62l2.1,2.951.236.3.826.767.8.354.944.177h1.918l.856.354,2.331,2.361.885,1.21.325,1.387.561,5.164-.885,1.239-.207,1.239-.443,1.033-1.712,2.007-.177,1.682.826,3.364v1.092l-.354,1.564-.59,1.3-2.8,3.836-2.243,3.187-1.062.974-1.033.472h-.885l-.679-.236-1,.266-2.272,2.331-2.951,1.239-.443.384-1.151,1.623-.5,1.121-.207,1.21.354,1.8.59,1.18.708,1,.649.767.3.915v.915l-.915.8-.885.531-.8.826-.443,1.151.236,3.807v1.564l-1.741,3.925-.266,1.092v2.538l-.915,2.538,4.515.177,4.338.974h1.092l.384-.354.177-.3.472-.443.944-.59,1.977-.679h1.3l1.062.5,1.239,1.033.472.236,7.171,2.007,1.239,2.951-.207,1.092-.207,2.331-.354,1.18-.443.885-.767,1.121-.354.384-.708.325,5.017,4.249L277.5,243,279,244.68l.472,1.239-.236,1v3.9l-.236.915-.384.885-1.18,1.475-1.357,2.567-1.357,1.21-1.623,1.977-.3,1.033-.325,1.741-.59.177-1.918-.59h-1.417l-2.243.531-1.564,1-1.594,1.269-3.482,3.512-.767,1.21-.413.944-1.092,3.512-.708.826-.826.561-.856.354-.767.708-2.449,3.836-1.357,1.357-.325,1.033.177.915.649.679.708.531.767.177h2.036l.708.443,1.033,1.623.148.384v.62l-1.8,4.279-.325,1.033-.148.767.5,1.269v1.446h0l-.944-.472-2.361,1.712-3.6,1.121-3.158-1.446-2.951-2.656-3.246-2.007-1.564.207-1.741,1-1.535,1.18-.738.8-.236,1.889.649,4.367-.236,2.125-1.121,1.623-.944,1.387-3.305,2.066-7.141,2.479-1.83.3h-3.63l-1.535.266-1.357.915-2.42,2.774-1.328,1.18-.413-2.154-.974-2.331-1.269-1.8-1.357-.354h-.974l-1.535-1.062H201l-.738.62-.207.826v.915l-.5.974-1.535,1.092-2.066.738-2.125.3-1.8-.177-1.623-.915v-1.269l1.535-4.22-5.4-.236-1.771-.856L182,305.914l-1.594-.413-2.951,1.476-6.227,1.5-2.715-.148-1.062.354-.472.708-.354.885-.679.8h-3.305l-.679-3.9-.266-3.63-1.977.767-.472,1.535-.472,2.243-.974,1.771h-1.859l-1.623-.266-1.416.679-1.239,1.3-1,1.623-3.276,3.423-4.515,1.3-8.676-.826h0l.384-3.305v-1.771l-.767-1.062-3.6-1.417-1.151-2.39.148-2.508.974-2.449,3.748-5.754,2.951-2.951,2.951-1.918,1.594-1.328,1.062-1.712.236-2.361-.826-2.007-1.535-1.475-1.918-.826-2.1.207-1.771.826-1.535.443-1.269-1-.354-2.213.325-5.9-.915-2.066-.915-1.269-2.951,2.154-1.83.767h-1.741l-.767.177-.885.59-2.567,2.361-1.712.885-15.522,2.538-1.889.708-3.453,2.39-1.859.767H91.05l-1.741.354-1.712,1.3-.885,1.357-1.062,2.951-.767,1.358-2.066,1.387-2.567.8-2.272,1.151-1.092.856-1.121,2.213-1.505,2.1-1.83,1.535-2.1.59-1.682.974-1.594,1.948-1.623,1.446-1.653-.59.266-1.859-2.007-26.264.3-2.331,1.121-.944h3.984l1.83-.531.767-1.239-.472-1.092-1.918-.915-.413-.856.5-.472,2.6-1.357.266-.59.236-1.269.531-1.269,1.062-.59.472-.354,1.889-2.42,5.253-4.072,1.328-.531.443-.3,3.217-2.951,1.8-.738,2.036-1.417.679-.679.354-1.121V244.71h-.384l-.826.266-1.535,1.446-1.092,2.538-1.416,2.42-2.479,1.062-2.036.5-5.43,2.508-1.121,1.21-1.092.236-5.282-.354-1.918.62.384-1.712L66.7,252.5v-1.889h.649l1.387,2.154.59-1.033v-4.4l-.177-1.092-.236-.62.354-.325,1.446-.3,3.63.826.5-.325.708-1.771,3.807-4.486,1.712-1.594L84.38,235.5l1.446-1.417.738-1.977-.915.443h-.826l-1-.413h-1.18l-.236.207-2.243,1.387-2.479,1.977-1.416.826-2.184.59-3.187.3-3.276-.413-2.39-1.475L64.4,234l-.472-2.6-1.121-1.269-.944-.885-3.453-.62-.59-.62.62-1.239,1.83-1.151,2.1-.856,1.476-.354,1.239.413.8,1.151v1.269l-.649.738.738.443.856.856,1.476.236,1.033-.413.413-1.417-.266-1.594v-1.476l1.239-1.062-1.239-4.692L69.33,216.5l.384-2.007.885-1.623,1.269-1.092,1.3-.384,1.3-1.712,3.718-8.351.767-2.951h-.62l-.708,2.184-.974,2.125-1.357,1.594-1.771.62-2.036-.738-1.21-1.712-1.033-2.125-1.357-1.948-1.505,3.63-.236,1.682,1,1.18-2.213,3.04-1.151.8-1.446-1.151.531-1.417-1.416.679-3.305,2.6,1.416,1.741-1.18.944-3.6,1.033-.3.708-.8,2.951-.856.325-.8.738-1.446,1.712-1.505-1.682-.207-2.479-.472-2.272-2.272-.974-1.505-1.475.5-3.276,1.446-3.512,1.3-1.889v-1.623l.325-2.951.62-2.715,1.121-1.623.5-.974.767-.974,1.18-.413.266-.3,2.951-1.653,2.6-3.63,1.505-1.387,2.42-.59.708-.944.62-2.154-.266-2.213-2.1-1.121-.413,2.951-1.564,1.948-2.3,1-2.656.384-5.105-.767-2.066.443.325,2.272-2.39,2.863-1.269.649-1.889-.354-1.328-1.18-.679-1.741L39.023,183l-.974-2.42h1.269l.915-.5.708-.974.62-1.328-.826-1.594-1.387-.944-1.918-.8v-1.062l-.5-1.83v-.8l.207-.531.915-1.033.236-.856.148-1.21v-.885l-.708-.531-1.712-.177-.944-.561L33.5,162.436l-1.239-.561v.856l.59,1.476-.59.8-.944.236h-.5l-.649-1.918h-1l-1.151.708-.856.856-.767,1.151-.974,2.774-.708,1.21-.443-.472-1-3.187-.915-.826v-.826l.679-1.328,2.066-5.725V156.8l.207-1.092.443-.915.384-.767.384-1.21-.62-.885-1.623-1.239-.738-3.246.826-.767h1.328l.708-1.21.531-2.508,1.18-1.151,1.151-.856.5-1.594,1.476,1.269,1.3.384,1.328-.472,1.446-1.18.531-.767.3-.649.384-.679.915-.738.826-.413.738-.236,1.8-.207v-1.033l-1.712.826-2.243.561-1.623-.177v-1.21L32,136.319l-1.416-.207-.915-2.39,4.781-4.574,3.217-1.771,3.777,1.653h1.741l1.8-.354,1.269-.561,1.3-1.121,1.269-1.594,1.062-1.889.5-2.066h.767l1.83,1.653h2.685l2.656-1.092,1.741-1.328-2.125.148-1.18-.8-1.505-2.951h-.443l-1.033-.974-.826-.826.738-.413h1l4.043-1.83,4.279-2.951,3.158-.856.738-.974.8-.679,1.151-.3,1.3.738,3.158,3.217,1.712.738,1.83.3,3.9,1.3,1.859.3,2.8-1.092,3.541-2.007,3.777-1.151,3.423,1.505,5.282-2.508.856-.856.325-1.239.826-1.033,1-.767,2.036-.5.443-.561.236-.62.62-.472,5.489-1.446.354,1.8.915,1.357,2.213,1.977,1.3-1.564.354-1.239-.266-3.276.915-1.8,2.007.354,2.951,1.859,1.446.5.62,1.239.384,1.564.649,1.505,2.331,2.3,1.033,1.357.708,2.066.767-2.213v-2.125l-.708-4.22v-2.125l.472-1.239,1.092-.974,1.859-1.3-1.977-.974-1.8-.177-3.335.207-1.771-.59-2.508-2.567-1.623-.708,1.889-1.505,10.151-1.328.679-.236.738-.649.443-.915-.148-1.033h-.5l-2.331,1.033-6.109,1.033.384-.472.266-.236.738-.325-.3-.561-1-.59-1.18,1.83-2.007.8-4.663.325.767-2.1.384-2.951.5-2.066,1.151.472,1.328-1.889-.826-.708-.8-1.121-.5-1.387V76.059h.384l1.741.3.679-.3,2.39.354,2.951-1.535,14.755-11.214.354,1.535.856.8h1.121l1.151-.561h-1.357V64.58l.413-.266.5-.443.443-.325-1.83-1.416-.3-1.476.5-1.505.354-1.594.62-1.21,1.476-.354h3.394l2.951-.856,2.951-1.682,2.508-2.331,1.977-2.715,2.774.443,1.18,1.977.767,2.449,1.505,1.859v.856l-.561-.354-1.033-.266-.531-.236-.708,1.151-.472,1.239v1.21l.59,1.033-1.033.8-.531-.207-.679-.531-.62.649-.266.207-.472.177v.944l5.046.266.915-1.033-1.859-2.951,1.18-.826h1.21l2.479.885-.207-.472-.266-1-.207-.5,1.328-1.712,1.83-1.535,2.007-1.151,3.984-1.062L180.908,49l1.8-1.859.915-1.948.325-.5.708.443.708,1.033.3,1.446-.413,1.121L183.033,51.3v2.007" transform="translate(0 0)" fill="#FFD106" stroke="#fff" stroke-miterlimit="10" stroke-width="0.75"></path>
      <path d="M245.342,222.99h1.328l.856-.472.738-.738.472-.915.354-.974.236-.915.413-.826.679-.531.767-.443,3.364-.944,2.1-1.151.915-.266.915.148.974,1.328.384,1.092v1.092l-.207.915-.885,1.594.207.738.59.561,2.154.236,3.482-1.269,4.1,1.653,2.951,2.036,3.158,2.951,2.331,3.246,2.626,1.5L284.177,234h4.545l.826-.266.826-.384,1.358-1.387.679-.826,3.453-2.951,5.076-1.475H302.8l.472.531v.738l-1.092,2.685-.3.974v1.033l.325,5.9.767,1.771.472.8.384,1,1.771,2.951-2.951,1.387-.3.5-.443,1.092-.531,3.276v1.328l.236,1.239-.531,7.023-1.682,9.738v3.512l.443,1.623.944-.384,1.918-.413,2.774-.236.856.207.856.413.708.62.649.738.59.8.443.8v.885l-.3.856L308.2,281.8l-.5,1.092-.266,1.564v1.505l-.236,1.269-.266,2.951.354,1.121.531.649,3.423.679h1.387l.649-.207.5-.443,1.121-1.859.885-1,2.036-1.741.649-.266,2.007-.3h.649l.767.472.443,1.033.472,1.712v1.239l-.62,1.977.3.767,1.358,1.623.708,1.092v1.033l-.177,1-.384.885-.443,1.8V304.2l-.325.826-.236.915-.384.826-1.033,1.594-.443.885-.59.8-.5.856-1.092,1.535-.207.8.325.767.62.708.738.679,1.623,1.062.738.649,3.689,4.751,2.154,2.331,1.446,1.21.767.915,1.505.944,1.8.472.738.5,1.446,2.449,2.951,3.453,1.033,1.535,1.328,1.446.472.443,1.062.856,1.18,1,6.463,3.246,2.479-1.475h.531l.767-.236.62-.443,2.272-1.092,3.6-1.062,1.092-.531,1.416-1.741,4.958-2.626,1.092-1.475,1.5,4.161-.354,2.272-1.475,2.951-1.5,4.426-.944,1.21-1,.679-1.033.207-.885.443-.738,1.033v1.328l.266,1.151,1.889,4.722,1.771,3.217.148.5.5.885,1.151.915,2.951,3.512,1.21,2.213h-1.3l-.472-.177-3.541-1.712-.767-.531-.856-.443-1.741-.3-1.8.443h-1.859l-1.771-.5h-.8l-.679.561-.62.738-.62.856-1.416,1.535-.738.62-.413.826-.443,1.446-1.18,5.4v1.83l.354,1.328.649.679,1.712,1,.679.738.266,1.092-.384.885-2.42,1.417-.885.384h-.974l-1.8-.649-2.479-1.475-.885-.325L345,383.29l-.856.266-.8.679v.856l.266.944.354.944v.974l.207.915.472.649.531.413.3.177h0v2.419l.325.944.443.767.679.561,3.423.974.649.413,2.685.384.649.826.384,1.417-.5,1.859-.443,2.951-.5.679h-.8l-2.774-.384-.974.147-.885.266L347,404.8l-.679.649-.767.885-1.564,2.774-.472,1.21-2.42,9.03-.974,2.508-.944,1.328-.738.443h-1.18l-1.18.148-1.5.738-2.744.384-1.623.767-8,.207-1.121.531-.236.708.384.915.177,1-.384,1.328-.325.826-.207.738-.443.62-2.951.885-4.6,3.158-3.246,2.8-.5.708-.413.5-.325.5-.266.59v.561l-.325.59-.472.177H306.4l-1.239-.236h-2.036l-1.3.266-1.771,1.594-.531.708-.885,1.387-.413.885-.384.708-.3.708v.8l-.354.915-.826,1.151-2.951,1.977h0l-1.476,1.417-.561.767-1.033,1.771-.767.59-1.653.561-4.486,2.479-1.269,1.062-.738.915-.649,2.656v1.3l.325.62.856,1,.3.561v1.3l-.266,1.387-.207.649-.207,1.3v.62l.266.531.443.472.531.472.443.472.325.62.236.59.413,1.475.207.62.325.62.3.679.944,1.8.177.5v1.859l.207.944v2.8l-.236,1.771-.708.885-.325.915-.325,1.8v1.653l-.472.679-4.309,3.482-4.249-.236-1.948,1.3-.679.8-2.213,2.1-2.213,1.623-1.771.325-1.121-.177-.62-.679-.531-2.685v-1.682l.59-.59.767-.5.885-.354,1.593-.944.443-.679-.207-.738-.443-.8-1.564-1.8-1.387-1.062-1.3-.236-6.728.915-2.951,1.121-.915.708-.679.856-.856,1.594-.561.59-.738.59L248,501.419l-.885.826-.62.885-.443.944-.3.885v.885l.413.8.5.8.325.856v.915l-.3.885-1.712,2.213-.325.738v.59l-.236.738-.384.944-1.121,1.328-1.062.679-1.328.5-4.309.885-1.948.148-7.643,1.505-2.479,1.328-3.128,2.361-1.328,1.357-1.712-1.653-13.4-5.312-2.567-.708h0l-.266-.738-.177-.856-.384-1-.738-1.269-4.072-2.951-1.121-.413H194.23l-.826.236-.708.5-.384.738-.531.738-1.505,1.3-.531.59-.236.708-.472.177-1.446.177-2.479-.826-4.81-.3-.59-.62-.266-.826v-.944l-.207-.944-.3-.885-1.918-2.626-1.416-1.18-1.3-.5-1.446-.384-3.276-.3-2.42.413h-4.781l-2.774-.885-1.21-.708-1.328-.325-.856-.561-.3-.738v-.885l.708-1.712.413-.8.531-.767.325-.856v-.885l-.531-.974-13.663-4.633-1.682,1.387-1.417-1.033-2.951.207-2.626.826h-.3l-.531-.177-1.239,1.712-2.449,1.092-2.538.531h-1.534l-2.331-2.184-3.689-10.358-.531-.561-1.712-1.3-.679-.708-.443-.8-.649-1.682-.413-.767-10.653-13.663-2.951-2.1-1.357-.679,1.446-1.535.974-1.417v-1.505l-1.151-1.682,1-1.476,1.8-6.463,4.22-6.109.531-1.771-.3-.974-.59-.472L108.3,437l-.5-.8v-2.3l.177-2.951.708-4.368.325-.915.856-1.712.177-.472,4.486-3.689,1.446-1.18,1.505-.62,1.682-1.387,1.357-1.623.59-1.21.944-.826,4.663-1,1.623-.8,1.21-1.269,1.239-1,.826-.531v-1.83l.5-2.007-1.387-2.538,2.154-1.8,2.243-2.951,3.394-6.581.974-1.3.561-1.3V386.89l-1.18-.915.708-2.213-.62-2.538-1.417-2.3-1.623-1.564-2.3-1.594-2.626-.738-2.656.325-2.42,1.446-1.21.472L123.17,377l-1.476-.767-1.033-1.033v-1.092l1.121-2.508.207-1.3-1.239-2.479-2.361-1.092L115.615,366l-2.508-1.387-1.416-2.036-.767-2.6v-2.715l1.357-2.361-4.987-6.109-1.889-1.535-.738-1.5-.472-2.774v-2.951l.5-1.83.8-1.859.531-2.951v-2.774l-.738-1.3-4.22-1.121-2.125-1.033-1.535-1.269-.974-2.951-.856-1.121-3.394-1.771L90.5,318.426l-2.951-3.984-1.8-1.653L82.5,303.76l-.767-1.8-.148-.354,21.69,1,1.387-.354,1.653-.738,1.859-.384h4.013l1.741-.531,2.184,1.328,3.128.148L134,300.248l1.476-.62,1.151-2.8v-.944L136.3,295v-1.21l.472-1.239,1.21-2.125.384-1.239-.177-1.092-.413-1.18v-1.416l.738-1.771.767-.649,2.3-.974.974-.561,2.538-3.807.325-1.239v-2.184l.177-1.151v-.679l-.354-1.3v-.62l.3-.561.974-.767.3-.5.59-3.217.413-1.18-.207-1.416.472-1.387,1.741-2.951-4.043-7.289-2.243-2.8-1.357-2.154-1.092-.974-1.062-.413-2.685-.384-1.21-.354-1.18-1.771-1.21-4.338-.826-1.918.856-1.535.974-2.951.915-1.21,1.8-.8,4.338-2.951,1.948-.325,1.977.177h1.948l1.859-1.269.3-.8v-1.033h0l1.269,1,1.8,2.1.974.708,1,.531,1,.266h1l1.033-.472h.944l.738.266,1.889.236,3.276-1.741h.885l1.889,1.062h1.033l1.121-.5.885-.62,1.357-.5,7.023-1.3,1.417-.59.885-.649.62-.738.3-.885v-.944l-.561-1.8V218l.472-.826.649-.767,3.128-2.449.8-.443,2.036-.826.767-.472,3.777-1.357,2.125-2.3.826-.531,1.092-.413,2.951-.649.974-.649.5-.915.325-.915.5-.826.708-.708.915-.738,1.033-.62,1.771-.325,1.3-.384,1.239-.561,3.423-2.538.974-.531,1.269-.148,1.741.384,3.394,2.184,1.033.856,1.623,1.741.944.5,1.918.472.177.856v.8l.8.767,1.21.62,2.125.8.561.59v.5l-.62,1v.531l-.3.531-.384.531-.207.472-.236,1.033-.3.531-.679.472.325.5,1.328.708,3.512,1.387,2.213,1.3,1.358,1.151.826,1,1.387,1.092,3.6,1.859,2.626,1" transform="translate(115.578 297.374)" fill="#FFD106" stroke="#fff" stroke-miterlimit="10" stroke-width="0.75"></path>
      <path d="M304.254,118.769l2.184.325,4.131,1.594,6.522-.944,1.062.413,2.951,2.007.856.885,1.21,1.653,1.239.944,1.446.472,1.977.207,6.728-.5,2.951.354,2.125,1.918-.472.649-.472.856-.472.354,1.387,2.125,2.331.826h5.607l7.584,9.178,3.807,2.744.207.767v2.066l.472.885.62.177,1.535-.266h.649l.944.62,2.449,2.243,4.869,2.774,2.036.59,2.951,2.125v2.951l.59,1,.325.856v.856l-.177.384v.649l.236,1.417.443.974-.266.826-.59.62-.915.266h-.974l-2.184-1.092-1-.325h-.944l-2.036.885h-.856l-.974-.266-1.18-.62H364.13l-.915.177-.561.649-.3.856-.354.885-.62.8-1.475,1.416-3.984,4.781-.384.915-.177,1v2.213l.413,1.328.679,1.387,3.836,3.246.767,2.6-.354.531-.944,3.158-3.925,2.125-.826.649-1.771,1.121-1,.443-1.151.266-2.42.266-1-.266-1.033-.974-1.033-.767-2.508-1.062h-1.682l-5.548-1.446-1-.59-.531-.856-.561-1.977v-.915l.177-.885.5-.59.413-.413h.177v-.531l-.266-.708-1-1.741-2.39-2.007-.59-.856-.325-1v-1.889l.62-.679.767-.443.738-.649.472-.767v-.974l-.531-.8-1-.649-1.564-.413-1.859-.148-1.8.207-5.607,1.977H319.6l-.974-.767-.62-.915-.354-1v-1l-.236-.944-.266-.826-.531-.59-.944-.472-5.164-.62-6.345.5-2.715.915-1.269,1.18-2.272,1.594-.885.413-2.1-.384h-.62l-.325.708v3.069l-.207,1.83-.384.738-.531.472-.561.384-.649.62-.531.826-.384,1.062-1.092,2.125-1.121,1.712-.236.708-.177.413v.207h-1.8l-2.951-.384-3.659.236h-1.623l-1.889-1.505-1.062-.443-1.239-.266h-2.1l-1.446-.767-.5-.856v-.974l.325-.974.384-1,.266-.974.384-.826,1.3-1.3.561-.826.325-1.918v-1.918l-.3-.8-.826-.5-1-.3-2.715.266-1.18.767-1.21,1.535-.354,1.121-.561,1.062-.236.944v.944l.236.974V178.5l-.531,1.18-1.121,1.239-2.744,1.712-2.951,1.446-3.954-1.18-.738-4.545-.443-.826-.236-.944-.443-.915-.561-.767-.8-.3h-.915l-.885.236-1.505.177h-3.6l-1.564-.8-1-1.564-.354-.944-.472-.915-1.062-1.623-1.564-1.062-.708-.62-.679-1.771-.266-1.033-3.364-5.105v-.708l1.21-1.092.679-1.121,1.121-4.22.207-1.535V147.6l-.354-.974-.266-1.062-.177-1.092v-2.331l-.148-1-.62-.708-.384-.8V138.9l1-.5,1.977-.384.649-.531,1.594-2.951V133.5l-.236-1v-4.072l.885-2.774v-.826l-.3-.915-.5-.8-.3-.885-.561-.738-1.475-1.062-.3-.915.266-1.121.708-1.682.3-1.21v-1.121l-.236-.826-.531-.62h-1.712l-.8.384h-.8l-.472-.531.148-1.062,2.951-3.364.413-.856.62-.826.649-.8.649-1.092v-.974l-.354-.944-1.121-1.653.354-.856,1.535-.738,4.1-.325,6.581.767,1.535.679,2.685.531,6.964-2.42v1.328l.148,1.771.59,1.033,1.387-.885.354,1.269-.207.679-1.21,1.357v.8l.59.8.8.472.708-.207,1.269-.62,1.358.177.649-2.184.384-.974.767-.767,1.476-.59,1.328.413,3.423,2.479,1.033,1.121.354,1.062v.944l-.207.915v1.977l.325,2.154h.767l.944.5,3.571,2.951,1.417.649.649-.826.531-.413h1.121l1,.738.148,2.1,1.239-1.21,1.358-.708,1.623-.207,1.977.266-.236-.413h0l-.266-.3.5-1.062.59-.8.767-.59.915-.325.974,2.39,2.951,1.741,3.512,1.062,2.125.325" transform="translate(410.553 105.667)" fill="#FFD106" stroke="#fff" stroke-miterlimit="10" stroke-width="0.75"></path>
      <path d="M292.918,62.3l1.977,1.977.856,1.505,1.18,3.453.384,2.951.413-.531.767-2.538V66.873l.5-.561,1.18-.236,1.21.325,1.092.5,3.158.561,5.9,2.508,4.308.915,2.272.885,1.918,2.951,9.738,4.633,4.072,1.21,4.249.472,4.4-.531,3.335-.915h1.151l.59.443.708.974.915.974,1.239.443h.236l.354-.325.472-.325.679-.148.472.3.236.649.3.649.708.3,2.951-2.331,1.269-.413,2.1-.325,7.142-2.6,2.272-1.476,1.151-.531h1.505l1.21.944.708,1.357.767.679,1.446-1.033-.59-.384-.856-1-.679-.561,4.072-1.859,3.807-3.423,3.6-1.948,2.007,1.446L387.2,73.9v4.633l2.951,1.416,1.269,1.712.325,2.685.3.649h0l-2.361.679-.856.738-.944.974-1.446,2.951-1.564,2.508-1.239,1.269-1.387.8h-1l-.679-.384-.885-.3-.531.413-.177.738v.708l-.384.325h-.561l-1.328-.561-.62-.354-.236.649-.767,2.951v1.062l.177,2.125.148.974.354.885.147,1.269-.147,1.535-1.446,2.951-1.121,1.21-1.269,1.033-1.328.649-5.105,3.6-1.417,2.479-.8,1.712-.413,1.239v1.092l.236.974v1.092l-.325,1.357-.679.856-.767.62-2.951.561-.944.561-1.889,2.656-.944.885-1,.384h-2.184l-1.977.266-.856-.266-1.83-.767-1.328.266-1.121,1.121-.649.856-.413.885-.177.8-1.682,2.862,1.387,5.725v1.21l-.266,1.387-2.184,3.482-1.121,2.951-.207,2.036v2.243l-.236,1.21-.561.826-2.744.944-.826,1.21v1.092l.856,5.194.531.384,1.092.3.3.8v1.21l-.561.738-2.951,2.007-.974.472-.974.207h-1.8l-.679-.561-.826-1.476-.443-.443-.59-.354-.856-.177h-.915l-.944.354-1.977,1.623-1.3,1.475-1.948,1.623-.885.5-1.387,1.328-.207,1,.148.915.5.738.679.561h.8l1.564.885.8.3.826-.413,2.066-2.685h.8l.767.325.5.708.266.944.413,2.567-.885,7.171-.325,2.066-2.125-.325-3.512-1.062-2.951-1.741-.974-2.39-.915.325-.767.59-.59.8-.5,1.062.266.3h0l.236.413-1.977-.266-1.623.207-1.358.708-1.239,1.21-.148-2.1-1-.738h-1.121l-.531.413-.649.826-1.416-.649-3.571-2.951-.944-.5H297.9l-.325-2.154v-1.977l.207-.915v-.944l-.354-1.062-1.033-.354-3.482-2.449-1.328-.413-1.475.59-.767.767-.384.974-.649,2.184-1.357-.177-1.269.62-.708.207-.8-.472-.59-.8v-1.033l1.21-1.357.207-.679-.354-1.269-1.387.885-.59-1.033-.148-1.771v-1.328l-.443-1.594-1.062-1.3-6.522-5.312-2.567-1.151-2.538-3.217-1.564-.708-1.918-1.387-2.951-2.656-3.246-1.712-2.951,1.475-2.6.767-.413-.177h-1.269l.413-1.033.325-1.21-.531-.944-.738-.649-.62-.8-.413-.885v-1l.354-1.062.856-1.357,1.121-1.446,1.092-1.771.679-1.387.236-1.535-.384-1-.708-.472-.915.236-1.416,2.066-.708.738-.767.472h-1.918l-.944.207-.826.472-.708.738-.472.826-.354.826v.767l-.177.708-.561.325-.679-.3-.738-.561-2.951-3.954-1.416-1.328-.443-.8v-.915l.354-.944.531-.944,1.417-1.535,1.18-1.712.443-.944.679-.915.915-.767,3.6-.384,1.239.207,1,.3.856.5.649.679.472,1.8.531.708.826.413.915.325,1.977.3.974.266h1.918l1.653-.413h2.125l.856-.177.767-.59,1.269-1.21h.826l1.358-.413.5-.413.325-.561.207-.767-.148-.738-.5-.885-2.951-1.033-1.328-.885-.885-1.062-.531-.738v-1.033h1.239l1.859-.325h.915l.236-.177.413-.472.325-.856.236-1.151-.207-.8-.767-.826-1.918-.649-.679-.8V119.4l-.5-.561-.8-.325-1.859.885-1.859,4.013-1.151.443-.708-.207-2.951-.207-2.951-.856-.826-.413-.472-.5.413-.885.59-.885.679-1.505v-3.453l.561-2.479v-1.594l-.561-1-1.771-.708-.561-.826-.177-1.21.767-2.154.531-1.092,1.771-1.387v-1.328l-.413-.5-.561-.413-2.213-.354h-3.394l-2.243-.354-1.712-1.535-.561-.325h-.708l-.885.177-1.033.354-8.5,5.253-6.168,2.39-.207-1.712-.738-2.951-.472-.974-.325-.944V98.3l.148-.974V95.262l-.354-.974.354-1.239,1.062-1.387,8.381-5.9L232.6,84.7l1.3-.649,6.227.443,2.6-.325,2.243.826h.944l4.367-2.125.62-1,.443-1.3V73.129l1.948.649,1.8.177,2.272-1.771,3.187,2.036,5.017,4.308V77.5l-1.21-3.305L264,72.48l-.59-1V71l.5-.649,1.328-.443,1.18-1.416,4.367-2.685,1.594-.443V64.335H271.7v-.856l1.682-1,2.361-.325,5.135.236,4.751-.472,2.125-.856,1.741-.649,1.269.325,2.125,1.564m-9.856,91.954-2.1,3.187-1.475,1.682-.207.915.5,1.151,2.479,2.538,2.656,2.007,6.2,2.951,6.876,1.564,5.046,2.125,7.761.177.649.207.531.266.236.5.472.384,1.21-.177,1.092-.62.236-.561v-1.682l-.384-1.18V168.8l-.3-.738-.325-.443h-.679l-.531.384-.944,1.062-.62.384-.62.236h-.649l-.62-.413-1-1.475-.472-.59-.531-.5-.5-.531-.384-.561v-.649l.207-.561.5-.354,1.3-.354.531-.413.384-.531.944-1.889v-.649l.266-.59.177-1.121-.325-.384h-1.033l-.856-.207-.885-.59-.59-.59-.354-.62-.531-.325H305.7l-.856.325h-2.213l-6.2-1.889-1.475-.679-1.121-.3-2.685-.266-6.4.413-1.062.3-.561.649" transform="translate(388.896 30.67)" fill="#FFD106" stroke="#fff" stroke-miterlimit="10" stroke-width="0.75"></path>
      <path d="M672.063,214.33l-1.062.649-1.712,1.328-1.416.649-1.18.177-4.043-.177-9.679.974-2.42-.974-6.994,1.594-1.18,1.623-.266,1.535-.443.708v.62l.885,1.535,1,.8,1.977.826.8.708-1.062,1.062-.384,1.712v1.889l-.443,1.535,3.954,1.416,7.171-1.505h4.043L663,234.338l16.349,10.771,7.082,3.482,5.282-.62.266-8.617.915.472.8.62.62.8.443.826h.649l-.915-2.154-2.154-3.512-.443-1.977-.531-2.154-1.18-.354h-1.594l-1.534-.708,1.711-.8.177-1.889-.915-2.154-.974-1.446-.708-.354-1.534-.354-.531-.266-1.092-1-.443-.62-.531-.974-2.951-1.8-.561-1,.354-1.682-.62-.738-.62.561.177,1.859-.974,1.535-.738.885-.62.384-.708-.472v-.974l.266-.974.177-.384-2.243-1.771-.915-1Zm-94.433,15.257-10.417,4.22-5.548,1.446-5.666.531-3.128.885-5.9,4.043-2.951,1.446-1,.177-2.036-.177-.472.266-.62,1.151-.354.266-1.446.384-1.151.885-1.18,1.18-1.416,1.151-2.951,1.535-.8.177-.62.62-2.066,2.331-.443.266-.266.62-2.449,2.538h-.443l-1.151-.3-.472.207-.266.354-.708,1.682-.443.561-3.128,3.394-1.712,1.446-1.948.649-1.977.266-1.534.826-4.928,5.371-1.8,1.151-2.125.472-7.2,4.486-.62,1.948v2.715l.531,2.243,1.8,1.5.8,2.331,1,.738.62-.177,2.774-1.623.561,1.239.708.384.8-.472.826-1.151,2.685,2.774-.915.531-.266.826.266.974.207.266,1.859,3.423,2.951-.354,2.508-2.626,1.062-3.571,1.357-1.446L522.889,283l2.243-.738,2.6.738,3.394,1.948,2.774,2.715,1.18,2.685-1.534,3.128-.266,2.066,1.446,1,1.062,7.082,2.508,3.128,3.866,1.623,8.853.62.974-.177,1.623-.531,1.18-.177.885.266,1.535,1.239.974.384.708.443.384,1.239.177,1.446.531,1.151.531.561,1.623.708.62.443,2.685,4.043.472.531.885-.354.8-.62.354-.443.826-1.269,3.866-3.305,9.237-5.755,3.128-3.423,1.623-5.371.443.354.974.649.915-7.289,3.128-6.168,4.308-5.135,4.043-3.748-.738-2.066.384-1.977,1.062-1.535,1.712-.62,1.328-.8,1.092-1.8,1.328-3.6-.62-1.682.354-.826.649-.443.354-.708-.177-1.092-.354-.974v-1.092l.62-1.328-3.512-.266-5.636-3.423-2.951-.8-1.328.708-3.364,3.246-1.712.649h-6.905l-2.951-.649-3.217-1.859-2.6-2.626-1.18-2.951.177-2.685.738-.974,3.128-.826,1.712-.708.531-.443.62-.649.266-.974v-.974l.206-.915.974-.708V239.5l-7.7,2.154-3.6-.62.266-4.22h.708l1.092.649,1.239-1.092,1.357-1.446,1.446-.8,1.328-.266,3.512-1.712,1.062-.708-1.24-.708h-.354l-.472.62ZM411.783,339.011l-1.357.649-.974,1.151-2.066-.354-2.774.8-2.8,1.446-1.977,1.623-1.151-.738-1.977,1.534-.974-.8h-.649l-2.42,2.685-1.505,1.239-1.269.472-1.151,1.328V353l.885,5.371H387.2l-1,.266-.708.62-1.151-.708-1.18.177-.974.62-.915.826.915,1.505-.266,1.889-1.269,3.158.443,2.331,1.18,1.328,3.217,2.154.62-1.623,1.712-.531,1.711.531.708,1.623,1.092-.266h0l.266.177h.708l1.535-.531,1.711,1.328,1.771,1.8,1.8.826.8-3.246,1.092-2.774,1.357-2.331,1.594-2.154.354.531.649.649.443.531,1.062-1.357,2.8-1.535,1.239-1.062,3.158-4.84,3.482-2.331.531-.708.354-2.066.915-1.623,1.24-1.092H421.9l-1.623-4.279-.62-2.538.531-1.151-.8-.885-.8-.649-1.18-.266h-1.8l-.708-.266-1.623-1.357Zm-8.706,46.833h-.443l-.384,1.977-.974,1.417-1.446,1.357-.531-.708-.885.531-.62.974.354.472.708.443v1.062l-.443,1.18-.531.8h.62l-.62,1,.62,1.948.354.738h.708l2.951-1.623.974-.62,1.18-.443h1.594l5.754,2.951,3.394.974,2.42-1.505v-2.8l-2.508-.8h-5.105l-2.066-1.8-4.84-6.994v-.62Z" transform="translate(699.05 330.971)" fill="#FFD106" stroke="#fff" stroke-miterlimit="10" stroke-width="0.75"></path>
      <path d="M410.051,91.551h1.977l1,.177,3.453,2.154,1.771,1.475,3.925,5.253v.59l-.207.59v.5l.649.325H424.9l.59.826-.148.885v.826l.974.62h.8l1.682-1.151.885-.3.177-3.246h2.538l5.43,2.538,2.951-.236,2.449-1.446,4.84-3.748.856.885.8-.325.708-1.033.531-1.357,1.535,1.475,6.079,3.659,1.21,2.567,2.685.3,2.951-.8,1.8-.767-.236,2.39.59,2.361,1.21,2.007,1.653,1.357.62.767.147.974.266.856,1.062.472,1.3.384.679.62.472.679.59.62,3.954,1.564L483,117.52l7.761-2.951,6.168-.915,1.889-1.3,1.623-.236,5.371,1.387,1.594.8,2.184,3.836L511.153,120l1.475-.207,2.951-4.013,1.8-1.8,1.8-.649,2.774,2.39.236.443v1.121l.5.472,2.1.354h1.948l3.836-1.033,1.682.708,12.542-.354,3.571.472,1.3-.472.679-1.121h0l1.269,1.062,1.889,3.6,1.417,3.836.767,1.151.944.738.856.413,2.066.384,1.092.62.354.59v.59l-.384.856-.148.738-.266,1.977v.826l-.177.649-.266.561-.5.767-.531,1.121-.472,1.21-.472.5-.354.767-.354,1.151.266,1.505-.266.767v.325l-.384.3-.384.177h-1.181l-.649.5-.3,1.151.207.974.5,1.092.236,1.033v1.446l.354,1.033.413.561.354.325.443.443.59.885.561,1.653.8,3.276.472,5.9v2.6l-.148,1.3-.561,1.771.148.59v1.771l-.236,2.449-.177.885-.856,2.538-.738,1.328-.413.531-.236.649-.767,4.249-.354.974-.266,1.328-.207,1.417.236.767.3,1.357-.266,1.416-.3,2.951-.413,1.476-.531,1.21-.944.738v.679l-1.594,5.489-1.387,2.951v1.918l-.443,1.446-.472.767-.443.531-1.121.443-.708.561-.5.738L545,215.021l-.472.531-.649.354-.826.177-.915.531-.767.767-.59.826-.413.826v.826l1.357,1.3.915.62.354.649.207.856.236,4.427-.413.915-.649.767-.649.856-.8.413-1.476,1-.826,1.476-.767,1-.856.649-1.918.472-.8.325-.561.472-.443.472-1.328,2.272-1.033,2.154-.856,1.151-1.062.649-3.394.649-.767.236-.679.413-.384.472-.62.944-.207.738-.738.531-.679.826-1.357,2.243-2.39,2.213-1.416,2.154v2.1l1.387,3.305.5,2.951.325,1.062.531.738.856.443,2.951.384h2.036l.826.354.59,1.092v2.066l.266,1,.472.915.354,1.18-.3.856-.531.826-1.948,2.331-.531.826-.384.767-.207.531v.177l-.177.325-.3.3-.708.354-2.951.944-1.033.944-.266.738v5.194l-1.033,3.659-1.417,2.1.325,2.656.8.177,1.653.856,1.357,1.328.885,1.83.325,2.331-2.508,5.607.207,2.951.62,3.128-.266.3-1,.649-1.151.561-1.534,1-.8.944-.443,1-.177.974v1.121l-.679,2.508-.649.856-.826.679-.885.443-1.8.472-.62.649-.384.708-.62.561-.856.207h-.944l-1.062.59-.472.826-.236,1.033.178,1v.974l.3,1,.413.679.413,1.8L506.4,338.7l1.564,1.3,1.475.649,1.623,1.269,1.564,4.84-.413,2.951-.561.974-.413,1.3-1.18,1.8-.384.856-.207,1-.384,1.033-.3,1.092-.207,1.328.62,1.977.177,1.062v1.328l.354,1.121,1.033,2.361v1.033l-.413.944-.531.856-1.918,2.272-.885,1.741-.679.767-5.489,3.246-.531.531.561,1.623-2.951,1.092h-3.807l-1.416.266-1.18.413-.856.5-.885.649-.8.8-1.121.738h-.885l-.679-.384-.177-.826v-.885l-.325-1-.649-.8-1.682-.443-5.017.325-2.626-.5-4.574-2.951-1.535-1.328-.738-.8-.974-.738-1.387-.649h-1.8l-1.121.443-1.889,2.331-.531.856-.443.856-.443,1.948-.147,2.007v1.918l-.472.826-5.105,2.951-.826.708-1.151.62h-.856l-1.653-1.151-1.653-.325-1.21.266-1.092.59-.856.974-.148,1,.207.915v3.217l.3.826.738.472.856.354h.885l.738.5.856.266h.885l1.712-.59h.8l.59.443v1.8l-.266,1.062v.974l.207,1.889.236.915.148.915v2.833l-.3.885v1.623l1.505.944h0l.472,1.623.325.8v.767l-.531.5-4.663,1.977-1,.915-.62.944V419l.325,1,.62.8,1.535,1.151.679.649,1.24,1.535.59.944.354,1v1.3l-.561.8L450.1,430.8l-.944,1.092-1.623,2.567-1.21,1.239-2.184,1.682-.177.856.207.915v2.39l-.679.915-.8.767-3.659,1.741-.944.236h-1.859l-.944.177-.826.3-.767.148h-.561l-1.535-.384-.915-.59-.885-.354h-1l-.59.649-.177.856v1.889l-.148.885v.944l-.384,1.977-.708,1.151-.472.944-.207,2.066-.472,1.092-.856,1.328-1.357,1.033-1.682,1.712-.413.885-.207,1.062.177,1,.5,1.8-.147.767-6.994,3.571-3.836.62h-1.682l-.8-.148-.738.207-.384.679-.413,2.1-.443,1.21-.885,1.033-.266.236-1.328.885-1.062.266-2.3,1.21-.679.885-.443.944-.325,1.977v.885l.266.767v.856l.354,1.8.885,1.712.679.649.8.5,1.18,1.328.62,1.3-5.607,2.951-1.3.3h-1.83l-1-.384-.885-.561-.561-.767V489.7l-.443-.738-.354-.767v-.885l.236-.915.325-.885.177-1-.384-1.092-1.446-1.682-4.958-2.39-1.712-.472-1.092-.177-1.8.236-3.571-.207-2.508.472-1.859.708h-.915l-2.331.679-1.623-1.092-1.741-5.105,2.39-.62,4.751-2.42.767-.59.531-.767.325-.944v-.885l-.325-.885-1.3-1.475-3.305-2.744-2.538-1.593-6.433-.767-1.977-.915-.767-.767-.325-.8v-1.3L358,456.5l-.767-.443-.679-.679-.649-.8-.5-.885-.856-1.8-.62-1.8-.325-.62-.649-.207-1.328,1.033-.59,1.033-.236,1.092.384,2.007v.944l-.5.944-1.918.826-2.066.443h-3.158l-5.341-1.269.561-1.239.5-1.623v-1.889l-.177-.826-.5-.561-2.538.472-1.151-.148-1.417-.561-1.417-.354h-1.062l-1.357.767-.826-.354-1.357-.974-10.565-10.181L314.35,437.5l-1.475-.207-.885.5-.472.443-.561-.266-.148-1.653.443-1.033V433.81l-.531-1.83-4.309-5.282-1.712-1.83-2.951-1.3,1.24-1.682.649-.177.708-.649,3.246-5.017.885-1.062.885-.738,1.889-.974.826-.679.59-1.062v-4.692l.148-1.771,1.594-4.81.5-.826.679-.531,2.508.62h.915l1.682.708.767.649.826.443h1.771l1.712-.974.8-.649.62-.826.443-.767-.561-2.6v-1.535l.561-2.125.826-1.741.3-1.062v-2.8l-.236-1.328-.767-1.741-.59-1.18-.413-1.151V378.36l.413-1.121.944-1.977.3-1.269v-3.158l-.177-1.18-.325-1-.915-1.033-2.626-1.8-1.387-1.623-.767-1.033-.767-1.741-.531-1.977.207-4.309.177-1.121-1.18-2.538-3.453-3.1-.62-.826-1.062-1.062-.62-.826-4.987-4.574-1.446-1.712-.59-.885-.325-.885-.472-.826-.62-.856-4.987-4.249-3.364-1.889-4.1-3.217-2.538-1.033-1.269-.944-.974-.944-.62-.944-2.715-.738-8.44,2.715-.856-1.092-2.1-1.859-.856-.384-.944-.3h-.974l-1.83-.325-.856-.3-.708-.679-.384-.974-.236-4.987-.8-5.046-.236-.856-.384-.708-.8-1.83.147-4.279.561-2.42.649-.974.59-.5.708-.266.679-.5.62-.856.62-1.033.561-2.951v-3.335l.354-1.033.531-.856,1.121-.649,2.951.443,1.741.59.708.561.413.767.177.974V292.1l.325.8.708.443h.826l.826-.354,1.8-1.328,1.652-.915.944-.325,1.033-.207.826-.354.59-.531-.708-5.666-.325-1.18-.59-.944-.708-.8-.62-1.5-.354-2.213.3-4.692-.62-3.777-.59-.59-.236-.856v-.915l.266-.944.767-.856.561-.443.561-.325.472-.148h.62l.8.384,1.859.62.885-.236.62-.59.62-.885L292.9,260.7l1.918-1,.944-.826,1.121-1.269,1-.561,1-.207h.944l.915-.472.856-1.18.8-2.243.679-1.3.472-1.21.266-1.8-1.062-1.269-.679-.413-.59-.767-.207-1-.826-1.741-1.682-2.567-.679-.826-.354-1.033.325-1.18,1.092-1.977.59-.826.443-.974.384-1.121.177-1.092v-1l-2.1-2.951-1.505-4.308-.59-6.551.944-3.158.354-.531-.767-2.6h1.121l.266.148h.207l.177.177,1.092.561h.915l3.836.3.885.325.826.472.738.767,1.269,1.623.767.62.856.561,1.948.738.944.236h.974l1.889-.856.915-.236,1.8.62,1.741.856.767.561.708.679,1.092,1.594.708.679,1.564,1.121,1.8.679h1.889l1.889-.354,1.534-.885.768-.325h1.475l2.951.944h.974l1.859.443.708.3.443-.266.59-.649.561-1.328.944-.974,1.092-1.475.236-1.269.62-.974,1.357-3.158,1.83-3.128,2.066-2.951.649-1.269.354-2.3-.413-1.151-.738-.62h-.944l-.915-.266-.826-.472-.62-.8-.5-.885-.266-.944-.413-.885-.5-.8-1.387-1.357-.531-.826-.177-.915v-6.787l-.384-.974-.5-.856-.59-.826-.413-1-.177-.944v-1.18l.384-1.3.767-1.889.384-1.328.531-2.125v-1l.413-1.387.679-1.771,2.007-2.951,2.951-3.63.354-1.092-.266-.826-.531-.767-.679-.443-.649-.915v-1.033l.207-1.416.62-2.361,2.154-3.571,2.626-2.567,1.505-2.331.679-1.446v-.944l-.207-.531-.472-.826-.266-.738-.148-.885.236-1.033.413-1.062.649-1.3.649-.944.767-.649h1.151l1.8.531.856-.177.767-.443.679-.561.236-1.151.708-1.21,1.092-1.239,2.479-1.564.561-.8v-.5l-1.564-.738-.354-.354.708-.207.974-.5v-1.387l.266-.885.885-.59,5.9-.767.974.207H377.3l1.092-.62.413-.8.531-1.83.148-.974v-.915l.266-.944.708-.826,4.781-1.328,1.269-.59,1.269-.885,2.685-2.567,2.1-.974.767-1.682.649-.531,1.269-.679,1.062-.826,1-2.331.59-4.043-.147-2.154.236-1.121.413-1.239,2.715-3.63.354-.826v-.915l.325-1,.679-1.121,3.482-1.918h2.656l.384,1.033v.974l-.325.62v.738l.561,1.239,1.033,1m-40.606,58.755,1.092.885,1.505.472,2.154.443h1.18l.826-.561v-1.21l-.767-.679-1.062-1.121-.915-.561v-1.564l-.354-1.033h-1.387l-1.18,1.239-.413.915-.5,1.328v1.357m-2.39,1.357-.59-.561-.915.649-1.328.679-.826.915-.266,1.682.679,1.239h1.417l1.062-1.121.767-1.918v-1.446" transform="translate(473.317 80.948)" fill="#FFD106" stroke="#fff" stroke-miterlimit="10" stroke-width="0.75"></path>
      <path d="M335.556,68.13l-2.036.915-2.154.266-1.18.531-1.062.177-.3-.443-2.331.708-.885.738-.885.974L323.28,74.77l-1.623,2.508-1.239,1.269-1.357.8h-.974l-.738-.354-.885-.266-.531.443-.177.738v.708l-.443.266h-.561l-1.328-.62-.649-.354-.177.708-.8,2.951v1.092l.177,2.154.177.974.354.8v2.892l-1.416,2.951-1.18,1.18-1.239,1.062-1.357.62-5.105,3.6-1.357,2.508-.8,1.712-.443,1.151v1.18l.266.974V109.5l-.266,1.328-.738.915-.708.531-2.951.62-.915.531-1.977,2.626-.885.885-.974.443h-2.154l-1.977.266-.915-.266-1.771-.8-1.357.266L281.111,118l-.62.915-.443.8v.826l-1.8,3.276,1.446,5.725v1.18l-.266,1.446-2.243,3.453-1.092,2.951-.177,2.066v2.243l-.177,1.18-.62.885-2.685.915-.826,1.239v1.092l.915,5.194.531.354,1.062.266.266.826v1.239l-.649.708-2.951,1.977-1.092.561-.885.177H267l-.708-.561-.8-1.505-.472-.443-.62-.3-.8-.177H262.7l-.974.354-1.977,1.623-1.357,1.535-1.859,1.623-.915.531-1.416,1.239-.177,1,.177.974.531.738.62.531.8.177,1.535.885.8.266.915-.443,1.977-2.685h.8l.8.266.561.826.177.885.443,2.6-.885,7.171-.384,2.066,2.243.266,4.131,1.623,6.551-.885.974.354,2.951,2.066.885.8,1.18,1.712,1.24.885,1.446.531,1.977.177,6.728-.531,2.951.354L298.285,188l-.531.649-.472.8-.443.354,1.357,2.154,2.331.8h5.636l7.555,9.148,3.836,2.951.207.8v2.066l.443.885.62.177,1.534-.266h.62l.974.649,2.42,2.125,4.869,2.951,2.066.62,2.951,2.154v2.951l.531,1,.354.885v.8l-.177.472v.62l.177,1.328.443,1-.266.8-.531.649-.885.354h-1.092l-2.154-1.092-.974-.354h-.915l-2.066.885h-.885l-.885-.266-1.269-.62h-.974l-.915.177-.62.62-.266.826-.354.885-.649.826-1.417,1.417-4.043,4.751-.354.915L313.9,237.9v2.154l.443,1.357.62,1.416,3.866,3.246h1.623l.177.177,1.062.62h.915l3.836.266.915.354.8.472.8.8,1.269,1.623.708.62.915.531,1.859.708,1,.3h.974l1.889-.915.915-.177,1.771.531,1.8.915.708.531.738.708,1.062,1.623.738.62,1.594,1.18,1.8.62.915.177h.974l1.889-.354,1.505-.885.561-.3h1.416l2.951.915h.885l1.889.443.708.354.443-.266.561-.708.62-1.269.885-.974,1.092-1.535.266-1.239.62-1,1.357-3.128,1.771-3.158,2.154-2.774.649-1.239.354-2.331-.443-1.18-.738-.531H371l-.915-.177-.8-.561-.62-.8-.531-.885-.266-.915-.384-.885-.531-.8-1.328-1.357-.561-.8-.177-.915v-1.889l-.177-1.062v-2.685l-.177-1.18-.354-.974-.531-.915-.561-.8-.443-.974-.177-.915v-1.151l.354-1.357.826-1.889.443-1.328.443-2.154v-1l.443-1.328.649-1.8,2.066-2.951,2.951-3.689.354-1.092-.266-.8-.531-.8-.649-.354-.354-.915-.177-.974.266-1.446.649-2.42,2.036-3.482,2.715-2.626,1.505-2.331.649-1.417v-1l-.207-.531-.443-.8-.266-.738-.177-.885.266-.974.354-1.092.738-1.357.62-.885.708-.62h1.18l1.8.531.885-.177.708-.443.738-.561.177-1.151.708-1.18,1.18-1.239,2.42-1.623.531-.708.177-.531-1.535-.738-.354-.354.62-.177,1.092-.531V160.7l.266-.885.679-.59,5.9-.826.974.266h2.066l1.092-.62.443-.8.531-1.8v-1.977l.266-.885.738-.826,4.84-1.328,1.239-.649,1.269-.885,2.685-2.508,2.066-1,.8-1.682.649-.561,1.239-.62,1.092-.885.974-2.331.62-4.043-.177-2.154.266-1.062.354-1.269,2.8-3.6.354-.885v-.885l.354-1,.62-1.151,3.512-1.889h2.685l-1.534-3.866-2.685-.974-7.791,1.416-8-.62-3.866-1.269-3.482-2.685-1.18-1.417-1.682-.472-3.512-.443-.708-.62-1.712-1.062-.885-.384-3.777.384-3.217-2.715-3.512-1.859-5.9-1.092-1.859-1.062-1.712-1.977-.443-1.889.8-1.8,2.154-1.8-2.331-.62-2.243.885L369.169,97.4l-.708,2.685-.177,3.6-.885,1.889-1.712.531-2.8-.177-2.42-.708-2.243-1.269-1.771-2.066-1.269-2.951.8-1.18,4.131-4.486,1.269-1.682,1.505-4.308,1.092-5.489-.354-5.017-2.951-2.951H359.43l-1.092.443-1.062.177-4.22-2.243-3.128-.885h-1.977l-1.535.885-.8,2.331-.531,1.269-1.092.62-1.328.177-1.092-.177-1.151-.531-.561-.649-.708-2.42-.177-1.151.266-.8v-.738l-.974-.708-1.889-.915ZM393.6,180.623h-.62l-1.18,1.269-.443.885-.443,1.357v1.328l1.062.915,1.446.443,2.154.443h1.151l.915-.531v-.944l-.826-.62-1.062-1.18-.885-.531v-1.623l-.354-.974Zm-5.9,5.9-.885.62-1.357.708-.8.885-.266,1.623.708,1.269h1.357l1.062-1.18.826-1.889v-1.417Z" transform="translate(451.992 45.732)" fill="#FFD106" stroke="#fff" stroke-miterlimit="10" stroke-width="0.75"></path>
      <path d="M423.438,183.6h-1.8l-1.092.443-1.889,2.331-.531.885-.443.8-.443,1.977-.177,1.977v1.977l-.443.8-5.135,2.8-.8.708-1.18.62h-.885L407,197.765l-1.594-.266-1.269.177-1.062.62-.915.974v1l.177.885v3.217l.266.8.826.443.8.354h.885l.738.561.885.266h.915l1.682-.649h.738l.62.472v1.771l-.266,1.092-.177.974.266,1.889.177.915.177.885v1.889l-.177.974-.266.826v1.682l1.505.915h.207l.443,1.712.266.8v.708l-.531.531-4.663,1.977-1,.915-.62.885v.974l.354,1,.62.8,1.534,1.18.708.62,1.18,1.623.62.885.354,1v1.328l-.531.826-4.043,2.6-.885,1.062-1.623,2.6-1.239,1.269-2.154,1.623-.177.885.177.885v1l-.177,1.328-.649,1-.8.708-3.689,1.8-.885.177-1.859.472-.885.177-.915.266h-1.328L388.2,255.6l-.885-.531-.915-.354h-.974l-.531.708-.266.8v1.889l-.207.915v.885l-.472,2.066-.62,1.18-.443.885-.266,2.066-.443,1.062-.915,1.358-1.357,1.062-1.682,1.712-.354.915-.177.974.177,1.062.443,1.8-.177.738-6.994,3.571-3.777.62h-2.508l-.708.177-.384.649-.443,2.154-.443,1.151L362,286.207l-.3.266-1.239.8-1.092.266-2.331,1.269-.708.885-.443.915-.266,1.948v.915l.266.708v.915l.354,1.771.8,1.712.738.708.8.472,1.18,1.328.62,1.269L354.8,305.3l-1.328.266h-1.8l-1.062-.354-.826-.62-.62-.738v-3.836l-.354-.738-.354-.8v-.8l.177-1,.354-.8.177-1.092-.443-1.062-1.446-1.712-4.928-2.331-1.712-.531-1.062-.177-1.8.266-3.6-.177-2.508.443-1.889.708h-.885l-2.331.62-1.623-1.092-1.24,1.18-3.866,1.682-.708.826-.354.708.177.738.62,1.239.177.708v1l-.354,2.066v1.977l-.266,2.154-1.446,6.7-.8,1.977-.738,1.269-1.062,1.535-2.331,4.1-.354,1.269v1.977l.354,1.977v1.239l-.443,1-.561.708-.8.62-.885.443-.915.177h-1.86l-.885-.266-.8-.531-1.712-.8h-1.8l-.885.443-1.8,1.446-2.331,2.331-.531.8-3.6,7.171-1.151,1.535-1.092.885-.885.561-.443.443-.472,1.416v1.269l.266.531v.443h0v.384l-.3.826v2.951l.177.531h.207v.472l-.3.266-.443.354-.177.531v1.446l-.62,2.243-.531.885v1.358l.266.62.354.531.443.266.531,1.092,1.446.266.266.62.266.738.472.443.8.266.177.443.266.531.885.266.384.561v1.328l.177.826.266.885h.531l.531-.177h1.446l.531-.354h1l2.066.708,4.574,2.951,1.062.472h2.449l13.368,4.279.62,1.092v.974l-.354,1-.177.974-.266,1.977v2.951l-.177,1.889-.266.915-.354.8-.207.8-.443,1.18-.266.885-.8,1.889-.649.8-.708.649-1.151,1.594-.472.915-.62,1.977-.354.974-1.062,1.8-.384.885-.177.915-.266.885-.266,1.092v1.328l.531,2.066.826,1.18,9.679,11.568,1.712,1.328,1.328.738h2.8l2.774-.649h2.951l1.8-.354,1.534-1.062.62-.266h.708l.974.266,1,.354,1.24.8,3.246,5.755.62,1.239v1l-.531,1.889v1.062l1.269,3.954v.62l-.3.8-.354.649-.177,2.154-1.564,1.741-.974.354-.354.915v.974l.443,2.42.708,1.623.915,1.357.62.708,1.062,1.623.649.8.62.974v.472l-.443.443-3.246,2.1-1.771.62-1.977.354-2.508-.177h-.472l-1.594.443,1.682,8.263v3.305l-.974,3.512-.354,1.977.177,2.951-.266,1-.443.974-.649.8-3.836,3.512-.738.974-.62,1.357-.266,1.977v5.282l.266,1.977.443,1.18.915.354,1.859.266,3.777,1.328,1.18.738.531.531,1.062,1.8,1.535,5.105v1.534l-.354,2.154-.354.885-.649,4.043-.266.974-.8,1.8-2.951,4.485-.561,1.357-.443,2.331.177,2.508.561,2.331.62,1.328.62.915.62.531.472.531,2.036,3.423,1.623,3.217h0l1.092,1.977.708.885,1.446,2.154,1.062,2.42.62,1,2.951,3.217.708.649,4.309,4.486.8.443,1.8.531.8.531.826.62.531.561.443.266.708.177,1.889-.354h0v-.177l.266-2.066,4.043-10.063,1-1.682,1.859-2.066,1.446-1,.885-1.151.207-2.331-.738-9.148.266-5.4.472-1.977.62-1.771,1.062-2.154,1.446-1.977,1.889-1.535,2.243-.531,3.571.266,1.8-.443,1.092-1.534-.3-10.86.915-5.105,3.571.266.384-1.977,1.062-1.062,1.446-.354,3.217-.177.354-.561V495.64l.443-2.508,1.092-1.889,3.689-4.131.8-.531.62-1.446,1.534-1.062,9.591-4.043,3.128-2.331,2.626-1,4.486-.974h4.19l1.446-.62L433,473.478l.62-1.889-.177-1.682v-1.889l1.18-2.066,1.417-1.18,1.357-.531h2.951l1.8-.354,1.328-.62,1.446-.384,1.977.561-.708-1.8.974-2.066,1.092-.8,1.151-.649,1.357-1.328.708-.354h1.889l.443-.472.177-.354,1.18-2.685,1.416-1.357,1.535-.8,1.712-.443h1.859l.738-1V447.3l-.649-1.534-.974.266-1.535-2.243-.8-.8-1.151-.561.974-.8.443-.177-3.128-3.512-4.309-2.42-4.84-1.417-4.574-.443-2.774-.738-2.066-1.712-3.866-3.836-3.689-2.951-1.505-1.859-3.777-6.551-3.777-5.223-2.42-6.256-2.951-6.109-.354-2.243.354-1.446,1.328-1.239.384-1.357-.3-.885-1.239-2.42-5.282-14.194-2.626-9.325-.8-5.548-.177-5.9.708-5.194,1.092-2.331,3.128-4.574.649-1.623.531-2.243,1.239-2.243,1.357-1.948,2.42-2.626,1.062-1.594.738-2.243.266-3.158.531-1.328L430.4,305.536l6.256-7.082,2.715-3.954,4.279-9.237,2.626-3.777,6.256-4.013,2.8-2.951,7.348-12.1,4.751-5.017,3.394-4.84,1.357-1.446,2.685-2.243,1.18-1.328L483.048,234l2.6-2.715.708-3.394,1.357-2.154,1.711-1.889,1.771-2.508,1.623-3.954-.443-.354-6.286-2.685-.885-.708-.738-1.092-.354-1.062v-.915l-.708-.885-1.18-.8-2.951-1.712L472.1,204.67l-2.331-1.269-.974-.974-.738-1.977v-1.18l.354-1.062.561-.738.177-.885-1-.974-1.239-.915-2.243-.62-1.18-1.18-.531-.974-.266-.885-.443-.649-2.066.472-2.6-.472-2.951,1.092h-3.836l-1.357.266-1.151.443-.915.443-.885.738-.826.8-1.062.708h-.885l-.738-.354-.177-.885v-.915l-.354-.974-.62-.708-1.712-.561-5.017.384-2.6-.472-4.574-2.951-1.535-1.357-.708-.8-1-.708ZM309.322,259.589l-1.328,1.062-.649,1-.177,1.151.384,1.977v1l-.561.885-1.889.8-2.036.472h-3.158l-5.371-1.269-.354,2.508.443.708.708.649,2.42,1.416.354.649.266.885.384,1.623,2.951,8.322.885.738,1,.266h.738l6.374,1.062,2.774,1.092h1.623l.8-.354h.177l.915-.177,1.8-.207,1.859-.354.738-.354,1.771-.354,2.331-.62,4.781-2.331.8-.649.531-.8.266-.885v-.915l-.354-.885-1.239-1.446-3.335-2.774-2.508-1.623-6.463-.708-1.977-.885-.8-.826-.266-.8v-1.269l-.443-.443-.826-.443-.62-.708-.62-.826-.561-.8-.885-1.8-.62-1.8-.266-.62Z" transform="translate(516.708 271.016)" fill="#FFD106" stroke="#fff" stroke-miterlimit="10" stroke-width="0.75"></path>
      <path d="M155.23,384.94h2.1v1.328H158l-.915,2.39-.8-1.092-.944-2.627" transform="translate(259.251 663.834)" fill="#999" stroke="#fff" stroke-miterlimit="10" stroke-width="0.75"></path>
      <path d="M155.22,384.93h2.066v1.3h.708l-.915,2.39-.826-1.062-.915-2.626" transform="translate(259.232 663.814)" fill="#999" stroke="#fff" stroke-miterlimit="10" stroke-width="0.75"></path>
    </g>
  </g>
</a></svg>