<svg viewBox="0 0 218 218" xmlns="http://www.w3.org/2000/svg" fill-rule="evenodd" clip-rule="evenodd" stroke-linejoin="round" stroke-miterlimit="2"><path fill="none" d="M-558-1642h2078.7v3581.1H-558z"/><path d="M112.2 109a2.8 2.8 0 01-2.7-2.8V100c-2.7-.4-5.3-1.3-8-2.2l-.7-.2a2.8 2.8 0 011.8-5.3l.6.2c3 1 5.7 2 8.3 2.2 5.4.7 8.5-1 9.7-2.6a3 3 0 00.2-3.2c-1.2-2.2-4.5-3.5-9-3.5h-.2c-6.7 0-11.9-2.3-14-6.3a8.4 8.4 0 01.5-8.8c2.1-3.2 6-5 10.8-5.3v-6a2.8 2.8 0 015.5 0v6.2a44 44 0 018.2 2.3l.6.2a2.8 2.8 0 01-1.7 5.2l-.6-.2a42 42 0 00-8.4-2.2c-5.4-.6-8.6 1-9.8 2.8a3 3 0 00-.2 3c.8 1.7 3.7 3.5 9.1 3.5h.2c6.7 0 11.7 2.3 13.9 6.4a8.5 8.5 0 01-.6 8.9c-2 3-6 4.9-10.7 5.2v5.8c0 1.5-1.2 2.8-2.8 2.8m0-58a31.8 31.8 0 10.1 63.5 31.8 31.8 0 000-63.6m0 69a37.3 37.3 0 110-74.6 37.3 37.3 0 010 74.6m-4 61.3a20 20 0 01-8.3-1.4c-5.7-1.5-10.3-3-14.4-4.3a56.4 56.4 0 00-28.9-3.7 2.8 2.8 0 01-.7-5.5 61 61 0 0131.3 4c4 1.2 8.7 2.7 14.4 4.2.3 0 .5.2.8.3 2.6 1.6 14.4 1.6 23.5-4l46.5-29.5h.2a2.3 2.3 0 001.3-2.2c0-.8-.4-2-1.5-2.5-2.2-1.1-6 0-10.3 3.1-1 .7-2.4.7-3.3 0-1-.8-1.4-2.1-1-3.2 1-2.2.9-4 0-4.7-1-.8-3.8-.6-7.3 1.7l-3 2a2.8 2.8 0 01-4.3-2.2c0-1.2-.2-2-.6-2.3-.7-.4-3-.4-7.6 2l-11.6 6.2 7.5.3c3.4.2 6.2 2.9 6.7 6.4.5 2.9-.8 6.7-5.8 8.6a46.5 46.5 0 01-19.5 4.7 60 60 0 01-27.5-8.6 2.8 2.8 0 112.5-4.9c16.8 8.6 26.4 11 42.3 3.8l.1-.1c1-.4 2.7-1.3 2.5-2.7-.2-.8-.9-1.6-1.7-1.6-3.8-.3-6.8-.3-9.6-.4-10.7-.2-14.7-.3-28.1-10.2l-2.5-1.9-9.1-6.7c-1.3-1-6.3-1.7-11.2.3l-21.4 8.6a2.8 2.8 0 01-2-5L68 121c5.8-2.3 13-2.1 16.6.4l9.1 6.8 2.4 1.8c8.6 6.4 12.5 8.2 17.7 8.8.2-.5.6-1 1.2-1.3l17.5-9.3c5.7-3 10-3.7 13-2 .8.5 1.7 1.3 2.3 2.5 5.1-3.3 10.3-3.8 13.6-1.2a7.3 7.3 0 012.6 4.7c5.4-2.4 9-1.5 11-.5a8.3 8.3 0 014.5 7.4c0 3-1.5 5.6-4.2 7L129 175.4a40 40 0 01-20.6 5.8" fill="#393938" fill-rule="nonzero"/></svg>