<svg viewBox="0 0 218 218" xmlns="http://www.w3.org/2000/svg" fill-rule="evenodd" clip-rule="evenodd" stroke-linejoin="round" stroke-miterlimit="2"><path fill="none" d="M-1305-2243H773.7v3581.1H-1305z"/><path d="M135 127.3h-4.6a6.6 6.6 0 01-6.6-6l-1.6-11.1-5.1-4.2c-3.5-2.8-5-7.5-3.5-11.8l.6-2c1.4-4 5.5-6.5 9.7-5.8l3.1.5-3.4-9.3a6.6 6.6 0 013.2-8.2l5-2.5a2 2 0 011-.3h27.3a2.4 2.4 0 110 5h-26.6l-4.5 2.1c-.8.5-1.2 1.4-.9 2.2l5 13.3a2.4 2.4 0 01-2.7 3.2l-7.3-1.2a4 4 0 00-4.3 2.6l-.6 2a6 6 0 002 6.4l5.8 4.8c.5.4.8 1 1 1.5l1.6 12.3c.1 1 .9 1.6 1.8 1.6h4.6a6 6 0 005.8-4.6l2.3-5.5 1.8-9-5.3-5.3c-.8-.7-1-1.9-.5-2.8l2-4.2a2.4 2.4 0 013.5-1l10.5 6.3.2.1 8.4 6.3a2.4 2.4 0 11-3 4l-8.2-6.3-8.1-4.9-.2.3 5 5c.7.6.9 1.5.7 2.3l-2 10.4-.2.5-2.4 5.6a10.9 10.9 0 01-10.3 7.7" fill="#393938" fill-rule="nonzero"/><path d="M107.6 126c-1.4 0-2.5-1-2.5-2.4v-5c0-1.6-1-3-2.6-3.3l-7.6-1.5c-.5 0-.9-.3-1.2-.6l-7.3-7.3c-.5-.5-.8-1.1-.8-1.8v-4.5c0-1.5 1.3-2.8 2.8-2.8a7.3 7.3 0 005.8-2.8l6.3-5.8c1-.8 1-2.1.4-3.1l-7.5-11.3a2.4 2.4 0 012.6-3.7l2.7.7a6 6 0 005-3.3l4-7.9c.2-.5.7-1 1.2-1.2l10.5-4.2.7-.1 21-2.1c1.3-.1 2.5.8 2.6 2.2.1 1.3-.8 2.5-2.2 2.6l-20.6 2-9.3 3.8-3.5 7.1a10.8 10.8 0 01-7.7 5.8l4.6 6.9c2 3 1.5 7-1.2 9.4l-6.2 5.7a12.1 12.1 0 01-7 4v1.6l6 6.1 6.8 1.4c3.8.7 6.6 4.1 6.6 8v5c0 1.4-1 2.5-2.4 2.5M93 126c-1 0-2-.6-2.4-1.6l-2.2-6.7-14-11.7a2.4 2.4 0 113-3.7l14.7 12.1c.3.3.6.7.7 1.2l2.5 7.3A2.4 2.4 0 0193 126" fill="#393938" fill-rule="nonzero"/><path d="M162.3 131.6c-.5 0-1-.1-1.3-.4a2.4 2.4 0 01-.7-3.4 49.7 49.7 0 00-41.8-77.2 50 50 0 00-44.7 72c.6 1.1 0 2.6-1.1 3.2-1.3.6-2.7.1-3.3-1.1a54.9 54.9 0 1195 5.8c-.5.7-1.3 1.1-2.1 1.1M58.5 153a2.4 2.4 0 01-1.7-4.1l12.6-12.6c4.1-4.1 9.6-6.4 15.5-6.4h32.5c7 0 12.6 5.6 12.6 12.5 0 3.8-3 7-6.8 7.3l-28 2.1a2.4 2.4 0 11-.3-4.8l28-2.1a2.5 2.5 0 002.2-2.5c0-4.2-3.4-7.6-7.7-7.6H85a17 17 0 00-12 5l-12.6 12.5c-.5.5-1.1.7-1.8.7" fill="#393938" fill-rule="nonzero"/><path d="M84.8 181a2.4 2.4 0 01-1.8-4l10.3-9.8c.5-.5 1.3-.7 2-.6l24.2 3.7a17 17 0 0012-2.7l25.7-15.7 15.3-15a2.2 2.2 0 000-3.2 9.7 9.7 0 00-13-.3l-7.1 6.4-.8.5-11.8 4.2-.9.2H129a2.4 2.4 0 110-5h9.5l11-3.8 6.8-6.2a14.7 14.7 0 0119.6.4 7 7 0 010 10.3l-15.5 15.2-.4.3-25.8 15.8c-4.5 3-10 4.3-15.4 3.4l-23-3.5-9.5 8.9c-.4.4-1 .7-1.6.7" fill="#393938" fill-rule="nonzero"/><path d="M78 195.7a2.4 2.4 0 01-1.7-4.2l8-8-30.7-30.7-8 8a2.4 2.4 0 01-3.4-3.4l9.7-9.7c1-1 2.5-1 3.5 0l34 34c1 1 1 2.6 0 3.5l-9.7 9.8c-.4.4-1 .7-1.7.7" fill="#393938" fill-rule="nonzero"/></svg>