<svg viewBox="0 0 218 218" xmlns="http://www.w3.org/2000/svg" fill-rule="evenodd" clip-rule="evenodd" stroke-linejoin="round" stroke-miterlimit="2"><path fill="none" d="M-561-2243h2078.7v3581.1H-561z"/><path d="M109.2 181.6c-1 0-1.9-.6-2.2-1.5-.7-1.6-15.6-40 6.7-64.8.9-1 2.4-1 3.4-.1s1 2.4.2 3.4c-20.4 22.5-6 59.3-5.9 59.7a2.4 2.4 0 01-2.2 3.3" fill="#393938" fill-rule="nonzero"/><path d="M103.5 160h-.6c-.6-.2-12.4-3.5-17.3-13.9-3-6.5-2.6-14.3 1.4-23 5.3-11.7 16-19 24.5-24.8 5.8-4 11-7.4 11.9-10.7a2.4 2.4 0 014-1c3.6 3.8 15.6 36 8.1 56.4-3.6 10-11 15.6-22.1 17-1.4.2-2.6-.7-2.7-2-.2-1.4.7-2.6 2-2.7 9.3-1.2 15.3-5.7 18.3-14 5.7-15.6-1.5-39.4-5.4-48.2-2.5 3-6.6 5.9-11.4 9.2-8 5.5-18.1 12.3-22.9 22.8-3.3 7.4-3.8 13.7-1.4 19 4 8.3 14.1 11.2 14.2 11.2a2.4 2.4 0 01-.6 4.7" fill="#393938" fill-rule="nonzero"/><path d="M154.7 181.6h-45.5a2.4 2.4 0 010-4.8h45.5v-67c0-1.4 1-2.4 2.4-2.4h13.3L110.3 51l-60 56.4h13.4c1.3 0 2.4 1 2.4 2.4v67h29.8a2.4 2.4 0 010 4.8H66a4.8 4.8 0 01-4.8-4.8v-64.6h-11A4.8 4.8 0 0147 104l59.9-56.5a5 5 0 016.7 0l60.1 56.4a4.8 4.8 0 011.1 5.3c-.7 1.8-2.4 3-4.4 3h-11v64.6c0 2.6-2 4.8-4.7 4.8" fill="#393938" fill-rule="nonzero"/><path d="M152.3 88.2c-1.3 0-2.4-1-2.4-2.4V52.3h-12v7.2a2.4 2.4 0 11-4.8 0v-9.6c0-1.3 1.1-2.4 2.4-2.4h16.8c1.3 0 2.4 1 2.4 2.4v36c0 1.2-1 2.3-2.4 2.3" fill="#393938" fill-rule="nonzero"/></svg>