<svg viewBox="0 0 218 218" xmlns="http://www.w3.org/2000/svg" fill-rule="evenodd" clip-rule="evenodd" stroke-linejoin="round" stroke-miterlimit="2"><path fill="none" d="M-1301-1642H777.7v3581.1H-1301z"/><path d="M63.6 142h97l14.6-66h-97l-14.6 66zm99 4.8h-102a2.4 2.4 0 01-2.4-3l15.7-70.6a2.4 2.4 0 012.3-2h102a2.4 2.4 0 012.4 3L165 145c-.2 1-1.2 1.9-2.3 1.9" fill="#393938" fill-rule="nonzero"/><path d="M170.4 110.2H84.1a2.4 2.4 0 010-5h86.3a2.4 2.4 0 110 5m-43.3 68.2h-19.5c-1.3 0-2.4-1-2.4-2.4 0-1.3 1-2.4 2.4-2.4h17v-26.8h-17a2.4 2.4 0 110-4.9h19.5c1.4 0 2.4 1.1 2.4 2.4V176c0 1.3-1 2.4-2.4 2.4" fill="#393938" fill-rule="nonzero"/><path d="M156.3 178.4h-78c-1.3 0-2.3-1-2.3-2.4 0-1.3 1-2.4 2.4-2.4h78a2.4 2.4 0 110 4.8" fill="#393938" fill-rule="nonzero"/><path d="M107.6 178.4c-1.3 0-2.4-1-2.4-2.4v-29.2a2.4 2.4 0 114.9 0V176c0 1.3-1.1 2.4-2.5 2.4m-10.4-43.8h-.5a2.4 2.4 0 01-1.8-3L105 85.4a2.5 2.5 0 013-1.9c1.3.3 2.1 1.6 1.8 3l-10.3 46.2a2.4 2.4 0 01-2.4 1.9m34.2 0h-.6a2.4 2.4 0 01-1.8-3l10.3-46.2a2.5 2.5 0 012.9-1.9c1.3.3 2.1 1.6 1.8 3l-10.3 46.2a2.4 2.4 0 01-2.3 1.9" fill="#393938" fill-rule="nonzero"/><path d="M94.5 146.8h-34c-.7 0-1.4-.4-1.9-1-.4-.5-.6-1.3-.4-2l15.6-70.6c.3-1.1 1.3-2 2.4-2h34a2.4 2.4 0 110 5h-32l-14.6 65.7h31a2.4 2.4 0 110 4.9" fill="#393938" fill-rule="nonzero"/><path d="M97.2 134.6h-.5a2.4 2.4 0 01-1.8-3L105 85.4a2.5 2.5 0 013-1.9c1.3.3 2.1 1.6 1.8 3l-10.3 46.2a2.4 2.4 0 01-2.4 1.9m34.2 0h-.6a2.4 2.4 0 01-1.8-3l10.3-46.2a2.5 2.5 0 012.9-1.9c1.3.3 2.1 1.6 1.8 3l-10.3 46.2a2.4 2.4 0 01-2.3 1.9" fill="#393938" fill-rule="nonzero"/><path d="M162.6 146.8h-34a2.4 2.4 0 010-4.9h32l14.6-65.7h-31a2.4 2.4 0 110-5h34a2.4 2.4 0 012.4 3L165 145c-.2 1-1.2 1.9-2.3 1.9M61 95.3c-.5 0-1-.1-1.5-.5a26.8 26.8 0 1143.3-21 2.4 2.4 0 11-5 0A22 22 0 1062.6 91c1 .8 1.2 2.3.4 3.4-.5.6-1.2 1-2 1M76 42c-1.4 0-2.5-1-2.5-2.4V30a2.4 2.4 0 114.9 0v9.7c0 1.4-1 2.5-2.4 2.5M51.8 52c-.6 0-1.2-.2-1.7-.7l-6.9-6.9c-1-1-1-2.5 0-3.4 1-1 2.5-1 3.5 0l6.9 6.9a2.4 2.4 0 01-1.8 4.1m-9.9 24.1H32c-1.3 0-2.4-1-2.4-2.4 0-1.3 1-2.4 2.4-2.4h10a2.4 2.4 0 110 4.8m3 31a2.4 2.4 0 01-1.8-4.1l7-6.9c.9-1 2.4-1 3.4 0s1 2.5 0 3.4l-7 7c-.4.4-1 .6-1.6.6m74.8-31h-9.7c-1.4 0-2.5-1-2.5-2.4 0-1.3 1.1-2.4 2.5-2.4h9.7a2.4 2.4 0 110 4.8M100 52a2.4 2.4 0 01-1.7-4.1l7-7a2.4 2.4 0 113.4 3.5l-7 7c-.4.4-1 .6-1.6.6" fill="#393938" fill-rule="nonzero"/></svg>